<?xml version="1.0" encoding="utf-8"?>
<!-- Generator: Adobe Illustrator 27.8.1, SVG Export Plug-In . SVG Version: 6.00 Build 0)  -->
<svg version="1.1" id="Calque_1" xmlns="http://www.w3.org/2000/svg" xmlns:xlink="http://www.w3.org/1999/xlink" x="0px" y="0px"
	 viewBox="0 0 200 200" style="enable-background:new 0 0 200 200;" xml:space="preserve">
<style type="text/css">
	.st0{fill:#1E1E1E;}
	.st1{fill:#FFAF00;}
</style>
<g>
	<g>
		<path class="st0" d="M129.3,31c-3.2,7.8-8.5,14.1-15,18.4c-2.6,1.7-6.2,0.3-6.9-2.8c-1.7-7.7-1.2-15.9,2-23.7
			c3.2-7.8,8.5-14.1,15-18.4c2.6-1.7,6.2-0.3,6.9,2.8C133,15,132.5,23.2,129.3,31"/>
		<path class="st0" d="M81.7,101.6c1.8-4.3,4.6-7.9,8.1-10.5c2.1-1.6,5.1-0.3,5.5,2.3c0.7,4.3,0.3,8.8-1.5,13.2
			c-1.8,4.3-4.6,7.9-8.1,10.5c-2.1,1.6-5.1,0.3-5.5-2.3C79.5,110.5,79.9,105.9,81.7,101.6"/>
		<path class="st1" d="M154.2,61.5c-8.3,3.5-17.2,4.3-25.5,2.8c-3.9-0.7-5.8-5.2-3.6-8.5c4.7-7,11.4-12.8,19.7-16.3
			c8.3-3.5,17.2-4.3,25.5-2.8c3.9,0.7,5.8,5.2,3.6,8.5C169.3,52.2,162.5,57.9,154.2,61.5"/>
		<path class="st0" d="M62.7,78.3c5.5-2.4,11.4-2.7,16.8-1.3c1.5,0.4,2.2,2,1.4,3.4c-2.8,4.8-7.1,8.8-12.7,11.1
			c-5.5,2.4-11.4,2.7-16.8,1.3c-1.5-0.4-2.2-2-1.4-3.4C52.8,84.6,57.2,80.7,62.7,78.3"/>
		<path class="st0" d="M132.7,89.1c-3.5-1.4-6.4-3.7-8.5-6.6c-1.3-1.7-0.3-4.3,1.9-4.6c3.5-0.6,7.2-0.2,10.7,1.2
			c3.5,1.4,6.4,3.7,8.5,6.6c1.3,1.7,0.3,4.3-1.9,4.6C139.9,90.8,136.3,90.5,132.7,89.1"/>
		<path class="st0" d="M66.2,46.7c6.3,2.6,11.3,6.9,14.7,12.3c1.1,1.8,0.2,4.1-1.9,4.6c-6.1,1.5-12.8,1.1-19.1-1.4
			c-6.3-2.6-11.3-6.9-14.7-12.3c-1.1-1.8-0.2-4.1,1.9-4.6C53.2,43.8,59.9,44.2,66.2,46.7"/>
		<path class="st0" d="M111.3,106.6c-1.6-3.9-2.1-8-1.5-11.9c0.4-2.4,3.1-3.6,5.1-2.2c3.2,2.3,5.8,5.5,7.5,9.4
			c1.6,3.9,2.1,8,1.5,11.9c-0.4,2.4-3.1,3.6-5.1,2.2C115.6,113.7,113,110.5,111.3,106.6"/>
		<path class="st0" d="M93,25.5c2.7,6.3,3.4,13,2.4,19.3c-0.6,3.7-4.8,5.5-7.8,3.3c-5.2-3.7-9.5-8.9-12.2-15.2S72,19.9,73,13.6
			c0.6-3.7,4.8-5.5,7.8-3.3C86.1,14,90.4,19.1,93,25.5"/>
	</g>
	<g>
		<path class="st0" d="M27.2,190l-0.7,0.7c-0.5-0.5-1.1-0.9-1.7-1.2c-0.6-0.3-1.2-0.4-1.8-0.4c-0.7,0-1.4,0.2-2.1,0.5
			c-0.7,0.4-1.2,0.8-1.5,1.5c-0.4,0.6-0.5,1.3-0.5,2c0,0.7,0.2,1.4,0.6,2s0.9,1.1,1.6,1.5c0.7,0.4,1.4,0.5,2.2,0.5
			c1,0,1.8-0.3,2.4-0.8c0.7-0.5,1.1-1.2,1.2-2.1h-3v-0.9h4c0,1.4-0.4,2.6-1.3,3.4s-2,1.3-3.4,1.3c-1.7,0-3.1-0.6-4.1-1.8
			c-0.8-0.9-1.2-2-1.2-3.1c0-0.9,0.2-1.7,0.7-2.4c0.4-0.8,1.1-1.3,1.8-1.8c0.8-0.4,1.6-0.6,2.6-0.6c0.8,0,1.5,0.1,2.2,0.4
			C25.8,189,26.5,189.4,27.2,190z"/>
		<path class="st0" d="M34.7,188.5h1.9c1,0,1.7,0,2.1,0.1c0.5,0.1,1,0.4,1.3,0.8c0.4,0.4,0.5,0.9,0.5,1.5c0,0.5-0.1,0.9-0.4,1.3
			c-0.2,0.4-0.6,0.7-1,0.9s-1.1,0.3-1.8,0.3l3.3,4.3h-1.2l-3.3-4.3h-0.5v4.3h-0.9L34.7,188.5L34.7,188.5z M35.6,189.4v3.1l1.6,0
			c0.6,0,1.1-0.1,1.4-0.2c0.3-0.1,0.5-0.3,0.7-0.6c0.2-0.3,0.3-0.5,0.3-0.9c0-0.3-0.1-0.6-0.3-0.8c-0.2-0.3-0.4-0.4-0.7-0.5
			c-0.3-0.1-0.7-0.2-1.4-0.2H35.6z"/>
		<path class="st0" d="M52.1,188.2c1.4,0,2.6,0.5,3.5,1.4c0.9,0.9,1.4,2.1,1.4,3.5s-0.5,2.5-1.4,3.5s-2.1,1.4-3.5,1.4
			c-1.4,0-2.5-0.5-3.5-1.4s-1.4-2.1-1.4-3.4c0-0.9,0.2-1.7,0.7-2.5c0.4-0.8,1-1.4,1.8-1.8C50.4,188.5,51.2,188.2,52.1,188.2z
			 M52.1,189.1c-0.7,0-1.3,0.2-2,0.5c-0.6,0.4-1.1,0.8-1.4,1.5c-0.4,0.6-0.5,1.3-0.5,2c0,1.1,0.4,2,1.2,2.8c0.8,0.8,1.7,1.1,2.8,1.1
			c0.7,0,1.4-0.2,2-0.5c0.6-0.4,1.1-0.8,1.4-1.4s0.5-1.3,0.5-2c0-0.7-0.2-1.4-0.5-2s-0.8-1.1-1.5-1.4S52.8,189.1,52.1,189.1z"/>
		<path class="st0" d="M64.1,188.5H65v5.6c0,0.7,0,1.1,0,1.2c0,0.4,0.2,0.7,0.3,0.9s0.4,0.4,0.8,0.6c0.4,0.2,0.7,0.3,1.1,0.3
			c0.3,0,0.6-0.1,0.9-0.2c0.3-0.1,0.5-0.3,0.7-0.5s0.3-0.5,0.4-0.8c0.1-0.2,0.1-0.7,0.1-1.5v-5.6h0.9v5.6c0,0.8-0.1,1.5-0.2,2
			c-0.2,0.5-0.5,1-1,1.3c-0.5,0.4-1.1,0.6-1.8,0.6c-0.8,0-1.4-0.2-1.9-0.5s-0.9-0.8-1.1-1.4c-0.1-0.4-0.2-1-0.2-2L64.1,188.5
			L64.1,188.5z"/>
		<path class="st0" d="M77.7,188.5h1.9c1.1,0,1.8,0,2.1,0.1c0.5,0.1,1,0.4,1.3,0.8s0.5,0.9,0.5,1.5s-0.2,1.1-0.5,1.5
			c-0.3,0.4-0.8,0.7-1.4,0.8c-0.4,0.1-1.2,0.1-2.4,0.1h-0.7v4.3h-0.9V188.5z M78.6,189.4v3.1l1.6,0c0.6,0,1.1,0,1.4-0.2
			c0.3-0.1,0.5-0.3,0.7-0.6c0.2-0.3,0.3-0.5,0.3-0.9c0-0.3-0.1-0.6-0.3-0.8c-0.2-0.3-0.4-0.4-0.7-0.5c-0.3-0.1-0.7-0.2-1.4-0.2
			L78.6,189.4L78.6,189.4z"/>
		<path class="st0" d="M90.5,188.5h5.3v0.9h-4.4v2.9h4.3v0.9h-4.3v3.6h4.3v0.9h-5.3L90.5,188.5L90.5,188.5z"/>
		<path class="st0" d="M111.3,188.5h5.3v0.9h-4.4v2.9h4.4v0.9h-4.3v3.6h4.3v0.9h-5.3V188.5z"/>
		<path class="st0" d="M123.4,197.8v-9.3h0.2l6.2,7.1v-7.1h0.9v9.3h-0.2l-6.1-7v7L123.4,197.8L123.4,197.8z"/>
		<path class="st0" d="M138.1,188.5h5.3v0.9h-4.4v2.9h4.3v0.9h-4.3v3.6h4.3v0.9h-5.3L138.1,188.5L138.1,188.5z"/>
		<path class="st0" d="M150.3,188.5h1.9c1,0,1.7,0,2.1,0.1c0.5,0.1,1,0.4,1.3,0.8c0.4,0.4,0.5,0.9,0.5,1.5c0,0.5-0.1,0.9-0.4,1.3
			c-0.2,0.4-0.6,0.7-1,0.9c-0.4,0.2-1.1,0.3-1.8,0.3l3.3,4.3h-1.2l-3.3-4.3h-0.5v4.3h-0.9L150.3,188.5L150.3,188.5z M151.2,189.4
			v3.1l1.6,0c0.6,0,1.1-0.1,1.4-0.2c0.3-0.1,0.5-0.3,0.7-0.6c0.2-0.3,0.3-0.5,0.3-0.9c0-0.3-0.1-0.6-0.3-0.8
			c-0.2-0.3-0.4-0.4-0.7-0.5c-0.3-0.1-0.7-0.2-1.4-0.2H151.2z"/>
		<path class="st0" d="M172.2,190l-0.7,0.7c-0.5-0.5-1.1-0.9-1.7-1.2c-0.6-0.3-1.2-0.4-1.8-0.4c-0.7,0-1.4,0.2-2.1,0.5
			s-1.2,0.8-1.5,1.5c-0.4,0.6-0.5,1.3-0.5,2c0,0.7,0.2,1.4,0.6,2c0.4,0.6,0.9,1.1,1.6,1.5s1.4,0.5,2.2,0.5c1,0,1.8-0.3,2.4-0.8
			c0.7-0.5,1.1-1.2,1.2-2.1h-3v-0.9h4c0,1.4-0.4,2.6-1.3,3.4c-0.8,0.8-2,1.3-3.4,1.3c-1.7,0-3.1-0.6-4.1-1.8c-0.8-0.9-1.2-2-1.2-3.1
			c0-0.9,0.2-1.7,0.7-2.4c0.4-0.8,1.1-1.3,1.8-1.8c0.8-0.4,1.6-0.6,2.6-0.6c0.8,0,1.5,0.1,2.2,0.4C170.8,189,171.5,189.4,172.2,190z
			"/>
		<path class="st0" d="M179.5,188.5h0.9v9.3h-0.9V188.5z"/>
		<path class="st0" d="M187.8,188.5h5.3v0.9h-4.4v2.9h4.3v0.9h-4.3v3.6h4.3v0.9h-5.3L187.8,188.5L187.8,188.5z"/>
	</g>
	<g>
		<path class="st0" d="M25,132.6c-1.3-0.8-2.7-1.2-4.3-1.2c-1.6,0-3,0.4-4.3,1.2c-1.2,0.8-2.2,2-2.8,3.7L0,172.8h7.3l3.3-9h20.1
			l3.1,9h7.6l-13.6-36.6C27.2,134.6,26.3,133.3,25,132.6 M12.6,157.6l6.9-19c0.1-0.4,0.3-0.6,0.5-0.8c0.2-0.2,0.4-0.3,0.8-0.3
			c0.3,0,0.6,0.1,0.8,0.3s0.4,0.5,0.6,0.9l6.5,19L12.6,157.6L12.6,157.6z"/>
		<path class="st0" d="M67.2,160.2c0,1.5-0.3,2.8-1,4c-0.7,1.2-1.6,2-2.7,2.7c-1.2,0.6-2.4,1-3.8,1s-2.6-0.3-3.8-1
			c-1.2-0.6-2-1.5-2.7-2.7c-0.7-1.2-1-2.5-1-4v-17h-6.7v17.1c0,2.5,0.6,4.8,1.7,6.8c1.2,2,2.8,3.6,4.9,4.7c2.1,1.2,4.6,1.7,7.5,1.7
			c2.9,0,5.4-0.6,7.5-1.7c2.1-1.2,3.8-2.7,4.9-4.7c1.2-2,1.8-4.3,1.8-6.8v-17.1h-6.7L67.2,160.2L67.2,160.2z"/>
		<path class="st0" d="M101.5,155.6c-1.5-0.7-3.3-1-5.5-1h-5.6c-1,0-1.7-0.3-2.3-0.9c-0.6-0.6-0.9-1.3-0.9-2c0-0.8,0.3-1.5,0.9-2.1
			c0.6-0.6,1.3-0.8,2.2-0.8h13.2v-5.7H89.7c-1.7,0-3.2,0.4-4.6,1.2c-1.4,0.8-2.4,1.9-3.2,3.2c-0.8,1.3-1.2,2.8-1.2,4.4
			c0,2,0.4,3.6,1.3,4.9c0.8,1.3,2,2.3,3.5,2.9c1.5,0.6,3.1,0.9,5.1,0.9h5.8c0.7,0,1.2,0.1,1.7,0.4c0.5,0.3,0.9,0.7,1.2,1.1
			c0.3,0.5,0.4,1,0.4,1.6c0,0.5-0.1,1.1-0.4,1.6c-0.3,0.5-0.7,0.9-1.2,1.2c-0.5,0.3-1.1,0.5-1.8,0.5H81.8v5.7h15
			c1.8,0,3.4-0.4,4.8-1.2c1.4-0.8,2.5-2,3.3-3.4c0.8-1.4,1.2-2.9,1.2-4.6c0-2-0.4-3.7-1.2-5C104.2,157.3,103.1,156.3,101.5,155.6"/>
		<path class="st0" d="M120.4,135.7h-6.6v7.5h-5.1v5.7h5.1v15.5c0,2.6,0.8,4.7,2.2,6.2c1.5,1.5,3.5,2.3,6.2,2.3h7.4v-5.7h-6.2
			c-0.9,0-1.6-0.3-2.2-0.8c-0.5-0.6-0.8-1.3-0.8-2.2v-15.3h9.3v-5.7h-9.2V135.7z"/>
		<path class="st0" d="M137.9,145.4c-1.5,1.5-2.2,3.5-2.2,6.2v21.2h6.7v-20.9c0-0.9,0.3-1.7,0.8-2.2c0.5-0.5,1.2-0.8,2.2-0.8h5.9
			v-5.7h-7.2C141.5,143.1,139.4,143.9,137.9,145.4"/>
		<path class="st0" d="M178.2,144.5c-2.3-1.4-5-2.1-8.2-2.1c-3.3,0-6.1,0.7-8.4,2.1c-2.4,1.4-4.2,3.2-5.4,5.6
			c-1.3,2.4-1.9,5-1.9,7.9c0,0.4,0,0.7,0,1.1c0,0.1,0,0.1,0,0.2c0.1,2.3,0.7,4.5,1.6,6.5c1.1,2.4,2.7,4.2,4.7,5.6
			c2,1.4,4.5,2.1,7.3,2.1c0,0,0,0,0.1,0c0.5,0,1,0,1.5,0c4,0,7.1-2.3,8.4-3.5c0.3-0.2,0.6-0.7,0.6-0.7v3.4h6.7v-14.9
			c0-2.9-0.6-5.5-1.8-7.8C182.2,147.7,180.5,145.9,178.2,144.5 M162.1,153c0.7-1.5,1.7-2.7,3-3.5s2.9-1.3,4.8-1.3
			c1.8,0,3.3,0.4,4.6,1.3c1.3,0.9,2.3,2,3,3.5c0.7,1.5,1.1,3.1,1.1,5c0,1.9-0.3,3.5-1.1,5c-0.7,1.5-1.8,2.7-3.1,3.5
			c-1.3,0.9-2.8,1.3-4.6,1.3c-1.9,0-3.4-0.4-4.7-1.3c-1-0.7-1.8-1.5-2.4-2.4c0-0.1-0.1-0.2-0.2-0.3s-0.1-0.1-0.1-0.2
			c-0.1-0.2-0.2-0.3-0.3-0.5c-0.7-1.4-1-3.2-1-5H161c0,0,0-0.1,0-0.1C161,156.1,161.3,154.4,162.1,153"/>
		<rect x="193.3" y="130.3" class="st0" width="6.7" height="42.5"/>
	</g>
</g>
</svg>
