<svg width="1129" height="663" viewBox="0 0 1129 663" fill="none" xmlns="http://www.w3.org/2000/svg">
<g clip-path="url(#clip0_163_492)">
<path d="M321 642C498.283 642 642 498.283 642 321C642 143.717 498.283 0 321 0C143.717 0 0 143.717 0 321C0 498.283 143.717 642 321 642Z" fill="#F2F2F2"/>
<path d="M559 663C842.874 663 1073 650.688 1073 635.5C1073 620.312 842.874 608 559 608C275.126 608 45 620.312 45 635.5C45 650.688 275.126 663 559 663Z" fill="#3F3D56"/>
<path opacity="0.2" d="M558 649C812.051 649 1018 639.15 1018 627C1018 614.85 812.051 605 558 605C303.949 605 98 614.85 98 627C98 639.15 303.949 649 558 649Z" fill="black"/>
<path d="M971 152.5H131V202.5H971V152.5Z" fill="#3F3D56"/>
<path d="M131 608.83C131 611.676 131.561 614.494 132.65 617.123C133.739 619.752 135.335 622.141 137.347 624.153C139.359 626.165 141.748 627.761 144.377 628.85C147.006 629.939 149.824 630.5 152.67 630.5H949.33C952.176 630.5 954.994 629.939 957.623 628.85C960.252 627.761 962.641 626.165 964.653 624.153C966.665 622.141 968.261 619.752 969.35 617.123C970.439 614.494 971 611.676 971 608.83V177.5H131V608.83Z" fill="#3F3D56"/>
<path d="M949.33 117.5H152.67C149.824 117.5 147.006 118.061 144.377 119.15C141.748 120.239 139.359 121.835 137.347 123.847C135.335 125.859 133.739 128.248 132.65 130.877C131.561 133.506 131 136.324 131 139.17V177.5H971V139.17C971 136.324 970.439 133.506 969.35 130.877C968.261 128.248 966.665 125.859 964.653 123.847C962.641 121.835 960.252 120.239 957.623 119.15C954.994 118.061 952.176 117.5 949.33 117.5Z" fill="#3F3D56"/>
<path opacity="0.2" d="M949.33 117.5H152.67C149.824 117.5 147.006 118.061 144.377 119.15C141.748 120.239 139.359 121.835 137.347 123.847C135.335 125.859 133.739 128.248 132.65 130.877C131.561 133.506 131 136.324 131 139.17V177.5H971V139.17C971 136.324 970.439 133.506 969.35 130.877C968.261 128.248 966.665 125.859 964.653 123.847C962.641 121.835 960.252 120.239 957.623 119.15C954.994 118.061 952.176 117.5 949.33 117.5Z" fill="black"/>
<path d="M181 160.5C188.18 160.5 194 154.68 194 147.5C194 140.32 188.18 134.5 181 134.5C173.82 134.5 168 140.32 168 147.5C168 154.68 173.82 160.5 181 160.5Z" fill="#3F3D56"/>
<path d="M217 160.5C224.18 160.5 230 154.68 230 147.5C230 140.32 224.18 134.5 217 134.5C209.82 134.5 204 140.32 204 147.5C204 154.68 209.82 160.5 217 160.5Z" fill="#3F3D56"/>
<path d="M253 160.5C260.18 160.5 266 154.68 266 147.5C266 140.32 260.18 134.5 253 134.5C245.82 134.5 240 140.32 240 147.5C240 154.68 245.82 160.5 253 160.5Z" fill="#3F3D56"/>
<path d="M499.665 213.5H173.335C170.389 213.5 168 215.889 168 218.835V594.165C168 597.111 170.389 599.5 173.335 599.5H499.665C502.611 599.5 505 597.111 505 594.165V218.835C505 215.889 502.611 213.5 499.665 213.5Z" fill="#F2F2F2"/>
<path d="M881.524 272.5H608.476C605.452 272.5 603 274.952 603 277.976V289.024C603 292.048 605.452 294.5 608.476 294.5H881.524C884.548 294.5 887 292.048 887 289.024V277.976C887 274.952 884.548 272.5 881.524 272.5Z" fill="#2E8555"/>
<path d="M947.524 352.5H542.476C539.452 352.5 537 354.952 537 357.976V362.024C537 365.048 539.452 367.5 542.476 367.5H947.524C950.548 367.5 953 365.048 953 362.024V357.976C953 354.952 950.548 352.5 947.524 352.5Z" fill="#2E8555"/>
<path d="M947.524 396.5H542.476C539.452 396.5 537 398.952 537 401.976V406.024C537 409.048 539.452 411.5 542.476 411.5H947.524C950.548 411.5 953 409.048 953 406.024V401.976C953 398.952 950.548 396.5 947.524 396.5Z" fill="#2E8555"/>
<path d="M947.524 440.5H542.476C539.452 440.5 537 442.952 537 445.976V450.024C537 453.048 539.452 455.5 542.476 455.5H947.524C950.548 455.5 953 453.048 953 450.024V445.976C953 442.952 950.548 440.5 947.524 440.5Z" fill="#2E8555"/>
<path d="M947.524 484.5H542.476C539.452 484.5 537 486.952 537 489.976V494.024C537 497.048 539.452 499.5 542.476 499.5H947.524C950.548 499.5 953 497.048 953 494.024V489.976C953 486.952 950.548 484.5 947.524 484.5Z" fill="#2E8555"/>
<path d="M945.972 552.5H872.028C868.146 552.5 865 555.646 865 559.528V571.472C865 575.354 868.146 578.5 872.028 578.5H945.972C949.854 578.5 953 575.354 953 571.472V559.528C953 555.646 949.854 552.5 945.972 552.5Z" fill="#3ECC5F"/>
<path d="M1053.1 506.116C1055.76 501.472 1057.14 496.202 1057.09 490.85C1057.09 477.053 1048.54 465.869 1038 465.869C1027.46 465.869 1018.92 477.053 1018.92 490.85C1018.87 496.202 1020.24 501.472 1022.9 506.116C1020.29 510.78 1018.92 516.036 1018.92 521.382C1018.92 526.728 1020.29 531.984 1022.9 536.648C1020.29 541.312 1018.92 546.569 1018.92 551.914C1018.92 557.26 1020.29 562.516 1022.9 567.18C1020.29 571.844 1018.92 577.101 1018.92 582.446C1018.92 587.792 1020.29 593.048 1022.9 597.712C1020.24 602.356 1018.87 607.626 1018.92 612.978C1018.92 626.775 1027.46 637.959 1038 637.959C1048.54 637.959 1057.09 626.775 1057.09 612.978C1057.14 607.626 1055.76 602.356 1053.1 597.712C1055.71 593.048 1057.09 587.792 1057.09 582.446C1057.09 577.101 1055.71 571.844 1053.1 567.18C1055.71 562.516 1057.09 557.26 1057.09 551.914C1057.09 546.569 1055.71 541.312 1053.1 536.648C1055.71 531.984 1057.09 526.728 1057.09 521.382C1057.09 516.036 1055.71 510.78 1053.1 506.116Z" fill="#3F3D56"/>
<path d="M1038 485.299C1048.54 485.299 1057.09 474.114 1057.09 460.318C1057.09 446.521 1048.54 435.337 1038 435.337C1027.46 435.337 1018.92 446.521 1018.92 460.318C1018.92 474.114 1027.46 485.299 1038 485.299Z" fill="#3F3D56"/>
<path d="M1038 454.766C1048.54 454.766 1057.09 443.582 1057.09 429.785C1057.09 415.989 1048.54 404.805 1038 404.805C1027.46 404.805 1018.92 415.989 1018.92 429.785C1018.92 443.582 1027.46 454.766 1038 454.766Z" fill="#3F3D56"/>
<path fill-rule="evenodd" clip-rule="evenodd" d="M1109.44 220.845C1112.05 217.526 1114.42 214.03 1116.55 210.384L1066.4 202.149L1120.63 202.552C1125.84 191.234 1128.67 178.972 1128.97 166.519C1129.27 154.066 1127.03 141.682 1122.38 130.126L1049.62 167.868L1116.72 118.547C1110.43 107.684 1101.98 98.2323 1091.88 90.7801C1081.78 83.3279 1070.26 78.0348 1058.03 75.2308C1045.79 72.4267 1033.11 72.1716 1020.78 74.4815C1008.44 76.7913 996.713 81.6166 986.323 88.6567C975.933 95.6968 967.105 104.801 960.387 115.402C953.669 126.003 949.206 137.873 947.276 150.274C945.346 162.675 945.99 175.341 949.169 187.482C952.347 199.623 957.991 210.98 965.75 220.845C961.686 226.01 958.191 231.599 955.325 237.514L1020.41 271.329L951.011 248.037C946.139 262.442 944.934 277.834 947.508 292.822C950.081 307.809 956.351 321.919 965.75 333.873C955.145 347.356 948.548 363.551 946.713 380.606C944.878 397.661 947.88 414.889 955.374 430.319C962.869 445.749 974.554 458.758 989.093 467.86C1003.63 476.962 1020.44 481.789 1037.59 481.789C1054.75 481.789 1071.56 476.962 1086.1 467.86C1100.63 458.758 1112.32 445.749 1119.81 430.319C1127.31 414.889 1130.31 397.661 1128.48 380.606C1126.64 363.551 1120.04 347.356 1109.44 333.873C1122.11 317.761 1129 297.857 1129 277.359C1129 256.861 1122.11 236.957 1109.44 220.845Z" fill="#3ECC5F"/>
<path opacity="0.1" d="M946.189 277.359C946.157 297.863 953.05 317.776 965.75 333.873C955.145 347.356 948.548 363.551 946.713 380.606C944.878 397.661 947.88 414.889 955.374 430.319C962.869 445.749 974.554 458.758 989.093 467.86C1003.63 476.962 1020.44 481.789 1037.59 481.789C1054.75 481.789 1071.56 476.962 1086.1 467.86C1100.64 458.758 1112.32 445.749 1119.81 430.319C1127.31 414.889 1130.31 397.661 1128.48 380.606C1126.64 363.551 1120.04 347.356 1109.44 333.873C1121.69 318.321 946.189 267.1 946.189 277.359Z" fill="black"/>
<path d="M391.862 515.11L397.287 515.172C397.122 522.707 397.648 530.421 397.018 537.92C395.276 537.705 393.523 537.663 391.771 537.591C391.955 530.115 392.117 522.587 391.862 515.11Z" fill="#225030"/>
<path d="M348.804 515.166L353.927 515.081C353.786 520.944 353.882 526.829 353.901 532.694L364.756 532.766L364.706 537.542C359.466 537.226 354.142 537.481 348.887 537.415C348.934 530 348.845 522.581 348.804 515.166Z" fill="#225030"/>
<path d="M366.532 515.13C373.058 515.28 379.583 515.16 386.109 515.073C386.083 516.732 385.951 518.397 385.858 520.054C383.568 519.843 381.265 519.856 378.967 519.831C378.724 523.364 378.952 527 379.023 530.542L379.078 537.71L373.706 537.463L373.701 519.745L366.594 519.779L366.532 515.13Z" fill="#225030"/>
<path d="M228.758 514.654C231.201 514.783 233.565 515.677 235.667 516.911C236.455 517.374 236.93 517.767 237.167 518.656L236.908 518.848C236.792 518.935 236.68 519.027 236.562 519.111C235.516 519.854 234.996 521.138 234.386 522.247C233.143 521.209 231.961 520.195 230.358 519.78C228.654 519.339 226.902 519.528 225.388 520.443C223.842 521.377 222.796 522.882 222.38 524.63C221.938 526.494 222.363 528.518 223.448 530.089C224.318 531.347 225.627 532.312 227.15 532.571C229.051 532.896 231.145 532.206 232.679 531.098L234.264 529.953L234.848 530.328L237.482 533.402C234.976 535.538 232.607 537.297 229.203 537.7C226.431 538.029 223.61 537.214 221.429 535.474C218.951 533.498 217.351 530.527 217.053 527.371C216.766 524.336 217.653 521.158 219.633 518.818C222.025 515.992 225.214 515.015 228.758 514.654Z" fill="#225030"/>
<path d="M306.144 514.625C309.444 514.591 312.071 515.788 314.974 517.18C314.723 517.442 314.48 517.715 314.227 517.976C313.456 518.772 313.305 519.256 313.058 520.345C312.95 520.82 312.855 520.833 312.526 521.169C311.303 521.167 310.264 520.555 309.152 520.108C307.742 519.542 306.039 518.833 304.563 519.582C303.902 519.918 303.475 520.49 303.244 521.176C304.245 524.19 310.845 524.045 313.429 525.903C314.564 526.719 315.269 527.878 315.483 529.26C315.786 531.209 315.376 533.044 314.164 534.608C312.286 537.033 309.166 537.556 306.31 537.907C302.959 537.565 300.661 536.411 297.947 534.549C298.964 533.097 299.624 531.636 300.206 529.978C301.082 530.542 301.963 531.11 302.9 531.571C304.824 532.517 306.501 533.157 308.61 532.368C309.499 532.035 310.299 531.662 310.726 530.773C310.04 529.495 302.452 527.803 300.424 526.357C299.304 525.559 298.454 524.492 298.268 523.098C298.02 521.228 298.928 518.878 300.048 517.41C301.578 515.403 303.789 514.952 306.144 514.625Z" fill="#225030"/>
<path d="M321.646 515.069C323.31 515.127 324.989 515.088 326.655 515.09C326.82 519.136 325.74 528.97 328.49 531.8C329.399 532.735 330.63 533.098 331.911 533.048C333.129 533.001 334.23 532.603 335.063 531.691C337.631 528.882 336.662 519.089 336.616 515.111C338.352 515.194 340.105 515.119 341.844 515.097L341.886 519.735C341.941 524.458 342.816 531.1 339.257 534.783C337.294 536.815 334.365 537.819 331.578 537.837C328.728 537.855 325.913 536.832 323.959 534.716C319.99 530.418 321.524 520.625 321.646 515.069Z" fill="#225030"/>
<path d="M258.186 416.826L276.549 416.75C276.539 419.24 277.156 429.487 276.117 430.887L275.284 430.861C269.28 430.694 263.273 431.071 257.265 431.044C257.077 428.352 256.144 419.043 257.263 417.004L258.186 416.826Z" fill="#225030"/>
<path d="M256.954 396.193C263.493 396.102 270.034 396.159 276.574 396.187C276.586 398.569 277.24 408.988 276.243 410.356C269.844 410.151 263.437 410.648 257.036 410.405L256.954 396.193Z" fill="#225030"/>
<path d="M442.801 514.637C445.337 514.652 447.924 515.452 450.111 516.737C451.028 517.275 451.582 517.726 451.856 518.787C450.405 519.656 449.751 520.636 448.793 521.987C446.966 520.724 445.133 519.565 442.833 519.475C441.207 519.411 439.784 519.981 438.618 521.114C437.328 522.367 436.656 523.982 436.651 525.777C436.647 527.766 437.413 529.784 438.858 531.17C440.133 532.391 441.963 533.139 443.739 532.998C444.938 532.902 446.573 532.196 447.24 531.14C447.66 530.474 447.636 529.935 447.546 529.185L447.024 528.852C445.853 528.933 444.331 529.223 443.354 528.391C442.336 527.525 442.586 525.746 442.593 524.532L445.91 524.532C448.356 524.485 450.803 524.489 453.249 524.471C453.301 527.406 453.745 531.038 452.066 533.602C450.528 535.951 447.305 537.11 444.639 537.562C441.6 538.076 438.578 537.424 436.102 535.56C433.621 533.691 431.957 530.897 431.573 527.808C431.19 524.729 431.96 521.477 433.899 519.029C436.165 516.167 439.304 515.042 442.801 514.637Z" fill="#225030"/>
<path d="M298.664 437.331C300.482 437.28 302.309 437.317 304.129 437.322L304.05 451.483C299.129 451.201 294.109 451.431 289.177 451.471C287.135 451.49 285.09 451.417 283.048 451.368C282.905 446.714 282.976 442.042 282.972 437.385C288.206 437.436 293.43 437.427 298.664 437.331Z" fill="#225030"/>
<path d="M283.031 416.716C290.038 416.861 297.053 416.765 304.062 416.723C304.092 421.429 304.165 426.139 304.012 430.842C297.094 430.758 290.177 431.117 283.255 430.968C282.99 426.218 283.005 421.471 283.031 416.716Z" fill="#225030"/>
<path d="M286.972 515.024L291.85 515.117C291.553 522.701 292.295 530.401 291.542 537.96C290.802 537.893 290.026 537.847 289.333 537.563C286.59 536.439 279.657 527.806 277.162 525.21C277.006 529.377 277.103 533.552 277.15 537.721L272.103 537.566C271.95 530.07 271.976 522.6 272.124 515.104L275.676 515.197C277.578 517.291 284.401 526.155 286.23 527.005C287.143 525.874 286.92 517.015 286.972 515.024Z" fill="#225030"/>
<path d="M282.998 396.19C290.03 396.069 297.066 396.119 304.099 396.174L304.134 410.455C297.103 410.203 290.056 410.592 283.018 410.306C282.936 405.603 282.992 400.894 282.998 396.19Z" fill="#225030"/>
<path d="M404.937 515.003L408.519 515.077C412.451 519.329 416.197 523.748 420.242 527.896C420.376 523.629 420.244 519.36 420.402 515.087C421.998 515.134 423.602 515.113 425.199 515.12C425.442 522.642 424.852 530.205 425.225 537.697L421.741 537.812C418.086 533.346 414.12 529.057 410.078 524.939C410.064 529.18 410.141 533.423 410.188 537.663L405.047 537.655C405.256 530.247 405.322 522.404 404.937 515.003Z" fill="#225030"/>
<path d="M247.998 440.05C248.014 439.343 247.751 438.952 247.429 438.335L247.241 437.984L247.546 437.887L247.507 437.556L247.658 437.437C248.222 437.373 248.759 437.306 249.31 437.166L249.12 436.685L249.882 436.609C249.957 436.705 250.015 436.818 250.108 436.897C250.24 437.009 250.401 437.082 250.547 437.174C253.457 437.852 256.931 437.493 259.921 437.461C265.472 437.4 271.04 437.228 276.589 437.433L276.519 451.56C269.82 451.258 263.1 451.338 256.395 451.324C253.598 447.611 250.502 443.959 247.998 440.05Z" fill="#225030"/>
<path d="M251.528 514.901C254.093 514.659 256.335 514.71 258.74 515.816C261.757 517.205 264.039 519.904 265.077 523.043C265.996 525.823 265.844 528.767 264.511 531.387C262.787 534.78 259.992 536.386 256.53 537.561C253.822 537.93 251.006 537.743 248.495 536.596C245.882 535.401 243.865 533.143 242.873 530.458C241.73 527.365 242.103 523.849 243.6 520.937C245.334 517.561 248.042 515.97 251.528 514.901Z" fill="#225030"/>
<path d="M252.165 519.588C253.35 519.567 254.523 519.557 255.658 519.942C257.516 520.572 259.111 522.082 259.865 523.889C260.547 525.522 260.601 527.473 259.87 529.102C259.053 530.924 257.462 532.167 255.626 532.834C254.448 532.904 253.088 533.067 251.947 532.71C250.278 532.188 248.792 530.821 248.033 529.261C247.172 527.491 247.052 525.376 247.816 523.548C248.648 521.559 250.195 520.329 252.165 519.588Z" fill="#F8F9F8"/>
<path d="M392.585 271.106C393.162 271.068 393.774 271.057 394.349 271.129C396.041 271.342 397.983 272.845 398.919 274.226C399.591 275.218 400.097 276.722 399.803 277.925C399.516 279.101 378.213 312.778 376.479 314.968C375.34 316.407 374.157 317.271 372.551 318.137C371.058 318.278 369.862 318.27 368.524 317.517C366.575 316.419 365.839 314.473 365.208 312.462C365.229 312.389 365.248 312.316 365.269 312.243L365.377 311.879C365.553 311.265 365.726 310.655 365.975 310.065C368.043 305.155 372.433 299.5 375.328 294.935L383.776 281.634C385.557 278.843 387.267 275.826 389.441 273.324C390.409 272.21 391.223 271.666 392.585 271.106Z" fill="#EBBB23"/>
<path d="M278.965 271.123C280.013 271.028 281.121 270.967 282.116 271.37C283.293 271.847 284.111 272.796 284.878 273.767C290.515 280.904 296.238 290.788 301.261 298.66C303.762 302.579 307.032 306.666 308.888 310.919C309.394 312.079 309.403 313.295 308.905 314.471C308.066 316.45 306.268 317.568 304.374 318.366C302.981 318.452 301.799 318.435 300.507 317.823C299.29 317.246 298.389 316.232 297.6 315.169C294.273 310.691 291.502 305.515 288.499 300.784L279.75 287.028C277.672 283.769 275.144 280.382 273.763 276.764C273.972 276.112 274.197 275.478 274.492 274.858C275.483 272.777 276.857 271.903 278.965 271.123Z" fill="#EBBB23"/>
<path d="M336.197 255.003C337.289 254.983 338.215 255.044 339.222 255.503C340.844 256.242 342.064 257.619 342.641 259.304C343.259 261.106 343.333 298.439 343.003 303.122C342.929 304.168 342.8 305.19 342.276 306.117C341.269 307.899 339.668 308.637 337.788 309.227C336.858 309.219 335.951 309.203 335.062 308.896C333.395 308.322 332.218 307.07 331.54 305.466C330.852 303.833 330.899 259.627 331.578 258.137C332.401 256.332 334.433 255.524 336.197 255.003Z" fill="#EBBB23"/>
<path d="M240.05 309.752C240.518 309.762 240.957 309.834 241.404 309.973C244.968 311.089 253.633 317.179 257.403 319.37C261.525 321.766 265.652 324.237 269.826 326.535C273.35 328.475 277.101 330.257 280.425 332.523C281.941 333.556 283.38 334.794 284.218 336.457C284.868 337.746 285.098 339.222 284.56 340.592C283.757 342.64 281.7 343.939 279.812 344.841C279.24 344.794 278.657 344.699 278.105 344.539C274.475 343.483 265.807 337.669 262.142 335.499C254.295 330.852 246.04 326.468 238.538 321.306C237.474 320.574 236.213 319.752 235.614 318.579C234.884 317.152 234.673 315.553 235.243 314.031C236.09 311.773 237.94 310.648 240.05 309.752Z" fill="#EBBB23"/>
<path d="M431.653 309.781C432.821 309.721 433.832 309.714 434.929 310.17C436.575 310.853 438.062 312.411 438.697 314.075C439.191 315.37 439.144 316.835 438.578 318.099C437.951 319.497 436.869 320.578 435.647 321.474C430.717 325.087 424.811 327.831 419.529 330.94L406.008 339.005C402.908 340.856 399.713 343.015 396.331 344.296C395.237 344.552 394.216 344.734 393.13 344.338C391.622 343.788 390.406 342.609 389.73 341.162C389.027 339.66 388.96 337.921 389.635 336.397C390.264 334.977 391.627 333.795 392.854 332.896C397.528 329.467 402.996 326.925 407.942 323.885L423.146 314.529C425.915 312.861 428.659 311.018 431.653 309.781Z" fill="#EBBB23"/>
<path d="M312.014 424.165C315.768 422.617 319.63 420.685 322.609 417.882C324.61 416 326.547 413.617 327.779 411.154C328.321 410.07 328.778 408.767 329.435 407.763C329.746 407.288 330.131 407.106 330.638 406.904C330.806 406.837 330.977 406.776 331.146 406.712L331.521 405.71L331.416 405.356C333.139 408.434 334.168 413.879 335.99 416.33C336.108 416.487 336.233 416.64 336.353 416.795C337.537 419.418 337.956 422.55 338.362 425.379C340.216 438.291 338.754 450.841 334.142 463.049C330.938 471.532 326.411 479.279 321.263 486.707C297.084 480.96 282.152 474.583 262.915 458.432C276.686 458.027 290.499 458.308 304.279 458.189L304.176 470.007L311.438 470.005C311.405 460.373 311.035 450.587 311.45 440.974L311.791 441.076L311.931 440.35L312.328 440.535L311.969 439.79C312.321 434.648 312.029 429.326 312.014 424.165Z" fill="#225030"/>
<path d="M228.454 347.795C251.352 351.351 277.084 358.543 297.282 370.023C315.374 380.306 330.722 396.379 336.353 416.795C336.232 416.64 336.107 416.487 335.99 416.33C334.168 413.879 333.138 408.434 331.415 405.356L331.521 405.71L331.146 406.712C330.977 406.776 330.806 406.837 330.638 406.904C330.131 407.105 329.746 407.288 329.435 407.763C328.777 408.767 328.321 410.07 327.779 411.154C326.547 413.617 324.609 416 322.609 417.882C319.63 420.685 315.767 422.617 312.014 424.165C312.028 429.326 312.321 434.648 311.968 439.79L312.328 440.535L311.931 440.35L311.79 441.076L311.449 440.974C310.788 423.936 311.81 406.799 311.225 389.741C290.839 389.302 270.429 389.834 250.04 389.567C250.355 399.943 250.131 410.374 250.124 420.756C250.121 426.191 249.855 431.78 250.547 437.174C250.401 437.082 250.24 437.009 250.108 436.897C250.015 436.818 249.957 436.706 249.882 436.61L249.12 436.685L249.31 437.166C248.759 437.306 248.222 437.373 247.658 437.437L247.507 437.556L247.546 437.887L247.241 437.984L247.429 438.336C247.751 438.952 248.014 439.343 247.998 440.05C244.894 436.445 242.408 431.694 240.349 427.448C228.182 402.355 229.801 374.853 228.454 347.795Z" fill="url(#paint0_linear_163_492)"/>
<path d="M333.576 323.358C345.222 322.615 356.491 325.989 365.879 332.905C377.239 341.273 382.849 353.627 384.936 367.23C381.946 367.844 378.974 368.985 376.103 370.016C364.066 374.337 352.333 380.251 342.546 388.573L340.28 390.787C326.052 371.045 313.206 363.572 292.31 352.071C294.91 347.723 296.962 343.352 300.31 339.452C308.845 329.512 320.654 324.281 333.576 323.358Z" fill="url(#paint1_linear_163_492)"/>
<path d="M441.374 354.506C443.413 356.694 444.304 368.552 444.499 372.259C445.965 400.132 435.494 430.545 416.716 451.218C396.929 473.003 368.76 486.087 339.4 487.445C344.539 468.908 356.1 451.741 371.007 439.616C381.08 431.368 398.131 421.954 411.402 421.282L410.958 416.81C393.209 416.671 379.128 418.292 363.587 427.647C360.286 429.635 356.965 431.73 353.985 434.179C354.25 424.152 350.675 412.628 346.23 403.668C356.686 394.016 368.733 387.05 382.141 382.313C403.987 374.595 425.848 374.491 441.374 354.506Z" fill="url(#paint2_linear_163_492)"/>
</g>
<defs>
<linearGradient id="paint0_linear_163_492" x1="299.06" y1="434.741" x2="234.839" y2="344.324" gradientUnits="userSpaceOnUse">
<stop stop-color="#34711B"/>
<stop offset="1" stop-color="#A0E32E"/>
</linearGradient>
<linearGradient id="paint1_linear_163_492" x1="375.466" y1="377.989" x2="308.422" y2="328.762" gradientUnits="userSpaceOnUse">
<stop stop-color="#CD9C0A"/>
<stop offset="1" stop-color="#FDCF35"/>
</linearGradient>
<linearGradient id="paint2_linear_163_492" x1="365.061" y1="388.577" x2="415.978" y2="452.618" gradientUnits="userSpaceOnUse">
<stop stop-color="#6CB31E"/>
<stop offset="1" stop-color="#1A4623"/>
</linearGradient>
<clipPath id="clip0_163_492">
<rect width="1129" height="663" fill="white"/>
</clipPath>
</defs>
</svg>
