<svg width="79" height="95" viewBox="0 0 79 95" fill="none" xmlns="http://www.w3.org/2000/svg">
<path d="M58.2848 86.7056L60.093 86.7263C60.0379 89.2378 60.2133 91.8091 60.0036 94.3091C59.4229 94.2372 58.8385 94.2233 58.2543 94.1993C58.3159 91.7071 58.3698 89.1978 58.2848 86.7056Z" fill="#225030"/>
<path d="M43.9326 86.7241L45.6402 86.6958C45.5932 88.6503 45.6254 90.6118 45.6316 92.5669L49.2498 92.5909L49.233 94.1829C47.4867 94.0776 45.7119 94.1626 43.9603 94.1405C43.976 91.6688 43.9465 89.1958 43.9326 86.7241Z" fill="#225030"/>
<path d="M49.842 86.7122C52.0172 86.7622 54.192 86.7222 56.3674 86.6931C56.3588 87.2462 56.3146 87.8011 56.2836 88.3535C55.5203 88.2831 54.7525 88.2874 53.9867 88.2792C53.9057 89.4568 53.9818 90.6689 54.0053 91.8498L54.0238 94.239L52.233 94.1566L52.2314 88.2505L49.8625 88.2619L49.842 86.7122Z" fill="#225030"/>
<path d="M3.91916 86.5536C4.73342 86.5964 5.5215 86.8945 6.2219 87.3058C6.48479 87.4603 6.64318 87.5912 6.72189 87.8876L6.63576 87.9515C6.59709 87.9806 6.55979 88.0113 6.52034 88.0394C6.1717 88.287 5.99826 88.715 5.79514 89.0845C5.38068 88.7386 4.98693 88.4007 4.45236 88.2623C3.88459 88.1152 3.30041 88.1783 2.79572 88.4833C2.28069 88.7947 1.93185 89.2962 1.79338 89.879C1.64592 90.5003 1.78772 91.1751 2.14924 91.6986C2.43908 92.1179 2.87541 92.4396 3.38303 92.5261C4.01682 92.6343 4.71467 92.4044 5.226 92.0351L5.75451 91.6535L5.94924 91.7785L6.82717 92.8031C5.99182 93.5152 5.20197 94.1013 4.0676 94.2359C3.14338 94.3454 2.20334 94.0738 1.47639 93.4939C0.650411 92.8349 0.117014 91.8447 0.0176 90.7927C-0.0781031 89.7808 0.217598 88.7216 0.877755 87.9415C1.67482 86.9996 2.73791 86.674 3.91916 86.5536Z" fill="#225030"/>
<path d="M29.7135 86.5439C30.8135 86.5324 31.6891 86.9316 32.6567 87.3954C32.5729 87.4829 32.4918 87.5738 32.4076 87.6607C32.1506 87.9261 32.1002 88.0874 32.0178 88.4505C31.982 88.6087 31.9504 88.613 31.8406 88.7251C31.4328 88.7246 31.0867 88.5204 30.716 88.3714C30.2461 88.1827 29.6783 87.9464 29.1865 88.1962C28.966 88.3083 28.8238 88.499 28.7467 88.7277C29.0805 89.7322 31.2803 89.6837 32.1416 90.3031C32.5199 90.5751 32.7549 90.9615 32.8264 91.4222C32.9272 92.0718 32.7906 92.6837 32.3867 93.205C31.7608 94.0134 30.7205 94.1878 29.7686 94.3046C28.6518 94.1908 27.8859 93.806 26.9813 93.1853C27.3201 92.7013 27.5402 92.2144 27.734 91.6615C28.0262 91.8497 28.3199 92.039 28.6322 92.1925C29.2735 92.5079 29.8324 92.7212 30.5354 92.4581C30.8317 92.3474 31.0985 92.2228 31.2406 91.9267C31.0119 91.5005 28.4826 90.9365 27.8069 90.4546C27.4336 90.1884 27.15 89.8328 27.0883 89.3681C27.0055 88.7449 27.308 87.9617 27.6815 87.472C28.1916 86.8033 28.9283 86.6529 29.7135 86.5439Z" fill="#225030"/>
<path d="M34.8803 86.6919C35.435 86.7112 35.9948 86.6982 36.55 86.6987C36.6049 88.0474 36.2451 91.3255 37.1617 92.269C37.4645 92.5806 37.8748 92.7015 38.302 92.6849C38.708 92.6692 39.0748 92.5364 39.3524 92.2325C40.2084 91.2962 39.8856 88.0319 39.8702 86.7058C40.4489 86.7333 41.0332 86.7085 41.6127 86.7011L41.6268 88.2472C41.6449 89.8214 41.9368 92.0356 40.7506 93.2634C40.0963 93.9407 39.1198 94.2753 38.1909 94.2814C37.241 94.2874 36.3028 93.9462 35.6514 93.2409C34.3285 91.8083 34.8399 88.5438 34.8803 86.6919Z" fill="#225030"/>
<path d="M13.7283 53.9435L19.8488 53.9181C19.8457 54.748 20.0512 58.1638 19.7051 58.6306L19.4271 58.622C17.426 58.5663 15.4236 58.6917 13.4213 58.6829C13.3584 57.7857 13.0475 54.6824 13.4207 54.0027L13.7283 53.9435Z" fill="#225030"/>
<path d="M13.3174 47.0655C15.4971 47.0353 17.6771 47.0542 19.857 47.0636C19.8611 47.8577 20.0791 51.3306 19.7469 51.7868C17.6137 51.7185 15.4783 51.8839 13.3445 51.8029L13.3174 47.0655Z" fill="#225030"/>
<path d="M75.2637 86.548C76.109 86.5531 76.9713 86.8197 77.7002 87.2478C78.0059 87.4273 78.1906 87.5775 78.2819 87.9314C77.7981 88.2208 77.5801 88.5478 77.2608 88.998C76.652 88.5771 76.0408 88.1908 75.2744 88.1605C74.7324 88.1392 74.258 88.3292 73.8694 88.707C73.4393 89.1247 73.2153 89.663 73.2139 90.2613C73.2123 90.9243 73.4676 91.5972 73.9494 92.0589C74.3744 92.4659 74.9842 92.7156 75.5762 92.6683C75.976 92.6363 76.5209 92.4009 76.7432 92.049C76.8832 91.8271 76.8752 91.6472 76.8453 91.3974L76.6711 91.2864C76.2811 91.3134 75.7737 91.4099 75.4479 91.1325C75.1088 90.8439 75.1918 90.2509 75.1942 89.8464L76.3 89.8462C77.1151 89.8306 77.9309 89.832 78.7461 89.8259C78.7635 90.8042 78.9114 92.0152 78.3518 92.8699C77.8391 93.6529 76.7651 94.0392 75.8764 94.1898C74.8633 94.3613 73.8561 94.1439 73.0309 93.5224C72.2037 92.8995 71.6492 91.9681 71.5211 90.9384C71.3934 89.912 71.6502 88.8281 72.2965 88.0118C73.0518 87.0579 74.0981 86.6829 75.2637 86.548Z" fill="#225030"/>
<path d="M27.2203 60.7786C27.8264 60.7614 28.4353 60.7739 29.0418 60.7755L29.0156 65.496C27.3752 65.4021 25.7021 65.4788 24.0582 65.4919C23.3773 65.4984 22.6957 65.4741 22.0152 65.4577C21.9676 63.9064 21.9912 62.3489 21.9898 60.7966C23.7344 60.8136 25.4758 60.8107 27.2203 60.7786Z" fill="#225030"/>
<path d="M22.0094 53.9066C24.3451 53.955 26.6832 53.923 29.0195 53.9091C29.0293 55.4776 29.0539 57.0478 29.0027 58.6155C26.6969 58.5874 24.3912 58.7071 22.084 58.6573C21.9957 57.0741 22.0008 55.4915 22.0094 53.9066Z" fill="#225030"/>
<path d="M23.3231 86.6769L24.949 86.7079C24.8498 89.2361 25.0971 91.8028 24.8461 94.3224C24.5996 94.3001 24.3408 94.2849 24.1098 94.1902C23.1955 93.8153 20.8848 90.9376 20.0531 90.0722C20.001 91.4614 20.0334 92.853 20.049 94.2429L18.3668 94.1911C18.3158 91.6923 18.3246 89.2025 18.3738 86.7036L19.5578 86.7347C20.1918 87.4327 22.466 90.3872 23.0756 90.6706C23.3801 90.2937 23.3055 87.3407 23.3231 86.6769Z" fill="#225030"/>
<path d="M21.9984 47.0646C24.3422 47.0241 26.6877 47.0409 29.0316 47.0593L29.0434 51.8196C26.6998 51.7357 24.351 51.8653 22.0051 51.77C21.9777 50.2025 21.9963 48.6325 21.9984 47.0646Z" fill="#225030"/>
<path d="M62.6428 86.6699L63.8367 86.6947C65.1474 88.1119 66.3961 89.5849 67.7443 90.9675C67.789 89.5452 67.7449 88.1222 67.7978 86.698C68.3297 86.7134 68.8644 86.7066 69.3967 86.7087C69.4775 89.2161 69.2808 91.7372 69.4055 94.2349L68.2441 94.2732C67.0258 92.7845 65.7039 91.3548 64.3566 89.982C64.3519 91.3956 64.3775 92.8099 64.3933 94.2236L62.6797 94.2206C62.7492 91.7513 62.7713 89.137 62.6428 86.6699Z" fill="#225030"/>
<path d="M10.3324 61.6849C10.3377 61.4491 10.25 61.3189 10.1426 61.1134L10.0801 60.9962L10.1816 60.964L10.1688 60.8536L10.2191 60.814C10.4068 60.7925 10.5861 60.7702 10.7695 60.7236L10.7062 60.5632L10.9602 60.538C10.9854 60.5701 11.0047 60.6075 11.0357 60.6339C11.0797 60.6712 11.1332 60.6956 11.1818 60.7263C12.1518 60.9523 13.3098 60.8325 14.3064 60.8218C16.1566 60.8017 18.0127 60.7441 19.8621 60.8124L19.8391 65.5216C17.6061 65.421 15.366 65.4476 13.1311 65.4429C12.1988 64.2054 11.167 62.988 10.3324 61.6849Z" fill="#225030"/>
<path d="M11.5088 86.6357C12.3639 86.5552 13.1113 86.572 13.9129 86.9409C14.9183 87.4038 15.6791 88.3036 16.025 89.3499C16.3312 90.2765 16.2807 91.2579 15.8365 92.1314C15.2617 93.2624 14.3303 93.7978 13.1762 94.1894C12.2736 94.3122 11.3348 94.2501 10.498 93.8677C9.62695 93.4694 8.95468 92.7167 8.62402 91.8216C8.24316 90.7905 8.36737 89.6185 8.8662 88.648C9.44433 87.5226 10.3471 86.9923 11.5088 86.6357Z" fill="#225030"/>
<path d="M11.7213 88.1982C12.116 88.1913 12.5073 88.188 12.8856 88.3163C13.5049 88.5265 14.0365 89.0296 14.2879 89.6321C14.5151 90.1765 14.533 90.8267 14.2895 91.3696C14.0172 91.9771 13.4869 92.3913 12.8748 92.6136C12.4821 92.637 12.0287 92.6915 11.6485 92.5724C11.0922 92.3983 10.5969 91.9429 10.3438 91.4228C10.0569 90.8327 10.017 90.1276 10.2717 89.5185C10.549 88.8552 11.0645 88.4452 11.7213 88.1982Z" fill="#F8F9F8"/>
<path d="M58.5258 5.36866C58.7182 5.35616 58.9223 5.35245 59.1139 5.37647C59.6779 5.44737 60.3252 5.94855 60.6371 6.4089C60.8611 6.73937 61.0299 7.24092 60.9318 7.64171C60.8359 8.03389 53.7353 19.2597 53.1574 19.99C52.7777 20.4696 52.3836 20.7575 51.848 21.0462C51.3506 21.0933 50.9517 21.0903 50.5058 20.8394C49.8562 20.4735 49.6109 19.8247 49.4006 19.1546C49.4074 19.1302 49.4139 19.1058 49.4209 19.0814L49.4568 18.9601C49.5156 18.7554 49.5732 18.5523 49.6562 18.3554C50.3455 16.7189 51.8088 14.8337 52.7738 13.312L55.5896 8.87804C56.1832 7.94776 56.7533 6.94229 57.4777 6.10811C57.8004 5.73663 58.0719 5.55557 58.5258 5.36866Z" fill="#EBBB23"/>
<path d="M20.6541 5.37451C21.0031 5.34267 21.3725 5.32237 21.7043 5.45694C22.0965 5.61573 22.3693 5.93213 22.625 6.25595C24.5037 8.63486 26.4115 11.9296 28.0857 14.5536C28.9193 15.8601 30.0092 17.2226 30.6277 18.6399C30.7965 19.0269 30.7994 19.4321 30.6334 19.8241C30.3537 20.4839 29.7547 20.8563 29.1232 21.1226C28.6588 21.1513 28.2648 21.1454 27.8342 20.9415C27.4285 20.7493 27.1283 20.4112 26.8652 20.0569C25.7564 18.564 24.8326 16.8388 23.8318 15.2618L20.9156 10.6761C20.223 9.58994 19.3803 8.46084 18.9199 7.25479C18.9898 7.0374 19.0648 6.82627 19.1631 6.61963C19.4934 5.92568 19.9514 5.63447 20.6541 5.37451Z" fill="#EBBB23"/>
<path d="M39.7305 0.00107869C40.0943 -0.00556193 40.4031 0.0147499 40.7389 0.16768C41.2795 0.413969 41.6859 0.872953 41.8785 1.43467C42.0846 2.03526 42.1092 14.4802 41.999 16.0409C41.9744 16.3897 41.9314 16.7304 41.7568 17.0396C41.4211 17.6333 40.8873 17.8796 40.2609 18.0761C39.9508 18.0735 39.6486 18.0681 39.3521 17.9659C38.7967 17.7743 38.4041 17.3571 38.1783 16.8224C37.9488 16.278 37.9646 1.54249 38.191 1.04561C38.4652 0.444052 39.1426 0.174516 39.7305 0.00107869Z" fill="#EBBB23"/>
<path d="M7.6832 18.2511C7.83925 18.2544 7.98554 18.2784 8.13437 18.3249C9.32226 18.6968 12.2107 20.7269 13.4672 21.4572C14.8412 22.2558 16.2168 23.0796 17.6082 23.8454C18.7826 24.4921 20.033 25.0865 21.141 25.8417C21.6463 26.1861 22.126 26.5986 22.4053 27.1531C22.6217 27.5827 22.6984 28.0745 22.5191 28.5314C22.2514 29.214 21.5658 29.647 20.9365 29.9476C20.7459 29.9322 20.5516 29.9005 20.3676 29.847C19.1576 29.495 16.2684 27.557 15.0469 26.8335C12.4314 25.2845 9.67988 23.8232 7.1793 22.1027C6.82461 21.8585 6.4041 21.5845 6.20449 21.1937C5.96133 20.7177 5.89082 20.1847 6.08105 19.6775C6.36328 18.9249 6.97988 18.5499 7.6832 18.2511Z" fill="#EBBB23"/>
<path d="M71.5479 18.2607C71.9373 18.241 72.2741 18.2384 72.6399 18.3904C73.1885 18.6181 73.6842 19.1374 73.8959 19.6923C74.0606 20.124 74.045 20.6122 73.8561 21.0335C73.6471 21.4997 73.2864 21.8601 72.8791 22.1585C71.2358 23.363 69.2674 24.2777 67.5069 25.314L63 28.0025C61.9666 28.6195 60.9018 29.3392 59.7745 29.7661C59.4098 29.8513 59.0696 29.9122 58.7075 29.7802C58.2047 29.5968 57.7995 29.2036 57.5741 28.7214C57.3399 28.2206 57.3176 27.6411 57.5426 27.1329C57.7522 26.6597 58.2065 26.2658 58.6155 25.966C60.1735 24.823 61.9961 23.9755 63.6446 22.9624L68.7123 19.8435C69.6352 19.2876 70.5498 18.6732 71.5479 18.2607Z" fill="#EBBB23"/>
<path d="M31.6699 56.3896C32.9211 55.8738 34.2086 55.2296 35.2016 54.2953C35.8684 53.6679 36.5141 52.8736 36.9248 52.0525C37.1055 51.6913 37.2576 51.257 37.4768 50.9222C37.5805 50.7638 37.7088 50.7031 37.8778 50.6359C37.9338 50.6136 37.9906 50.5931 38.0471 50.5718L38.1721 50.2378L38.1369 50.1199C38.7112 51.1458 39.0543 52.9609 39.6617 53.7779C39.7008 53.8304 39.7424 53.8812 39.7826 53.9329C40.1772 54.8074 40.317 55.8513 40.4524 56.7945C41.0701 61.0986 40.583 65.282 39.0457 69.3515C37.9776 72.1791 36.4686 74.7615 34.7528 77.2376C26.6936 75.322 21.7164 73.1962 15.3043 67.8125C19.8946 67.6775 24.4987 67.7708 29.0916 67.7312L29.0572 71.6706L31.478 71.6701C31.467 68.4593 31.3438 65.1974 31.4819 61.9927L31.5955 62.0269L31.6424 61.7849L31.7746 61.8464L31.6549 61.5982C31.7723 59.8841 31.6748 58.1101 31.6699 56.3896Z" fill="#225030"/>
<path d="M3.81799 30.9326C11.4502 32.1177 20.0274 34.5152 26.7596 38.3419C32.7899 41.7697 37.9057 47.1275 39.7826 53.9329C39.7424 53.8812 39.7008 53.8304 39.6617 53.7779C39.0543 52.9609 38.7112 51.1458 38.1369 50.1199L38.1721 50.2378L38.0471 50.5718C37.9906 50.5931 37.9338 50.6136 37.8778 50.6359C37.7088 50.7031 37.5805 50.7638 37.4768 50.9222C37.2576 51.257 37.1055 51.6913 36.9248 52.0525C36.5141 52.8736 35.8684 53.6679 35.2016 54.2953C34.2086 55.2296 32.9211 55.8738 31.6699 56.3896C31.6748 58.1101 31.7723 59.8841 31.6549 61.5982L31.7746 61.8464L31.6424 61.7849L31.5955 62.0269L31.4819 61.9927C31.2615 56.3134 31.6022 50.6009 31.4071 44.9148C24.6119 44.7685 17.809 44.9458 11.0129 44.8568C11.118 48.3156 11.0432 51.7925 11.041 55.2535C11.0399 57.0652 10.9512 58.9281 11.1819 60.7263C11.1332 60.6956 11.0797 60.6712 11.0358 60.6339C11.0047 60.6076 10.9854 60.5701 10.9602 60.538L10.7063 60.5632L10.7696 60.7236C10.5862 60.7702 10.4069 60.7925 10.2192 60.814L10.1688 60.8536L10.1817 60.964L10.0801 60.9962L10.1426 61.1134C10.25 61.3189 10.3377 61.4492 10.3324 61.6849C9.29768 60.4833 8.46897 58.8993 7.78283 57.4841C3.72737 49.1197 4.26702 39.9521 3.81799 30.9326Z" fill="url(#paint0_linear_161_136)"/>
<path d="M38.8571 22.7867C42.7389 22.539 46.4951 23.6634 49.6242 25.9689C53.4108 28.7585 55.2807 32.8765 55.9762 37.4111C54.9795 37.6156 53.9891 37.996 53.0321 38.3396C49.0199 39.78 45.109 41.7513 41.8469 44.5255L41.0916 45.2634C36.3492 38.6828 32.0672 36.1915 25.1022 32.3579C25.969 30.9085 26.6528 29.4513 27.769 28.1513C30.6139 24.8378 34.55 23.0941 38.8571 22.7867Z" fill="url(#paint1_linear_161_136)"/>
<path d="M74.7879 33.1694C75.4676 33.8987 75.7645 37.8515 75.8295 39.0874C76.3182 48.3786 72.828 58.5165 66.569 65.4077C59.9735 72.6696 50.5844 77.031 40.7983 77.4837C42.511 71.3044 46.3645 65.5819 51.3332 61.5401C54.6909 58.7909 60.3743 55.6528 64.7977 55.4288L64.6499 53.938C58.7336 53.8917 54.0403 54.4319 48.8602 57.5505C47.7598 58.213 46.6528 58.9116 45.6596 59.7278C45.7479 56.3853 44.5565 52.5438 43.0748 49.5573C46.5598 46.3397 50.5754 44.0177 55.0446 42.4388C62.3262 39.8661 69.6127 39.8313 74.7879 33.1694Z" fill="url(#paint2_linear_161_136)"/>
<defs>
<linearGradient id="paint0_linear_161_136" x1="27.3522" y1="59.9151" x2="5.94409" y2="29.7769" gradientUnits="userSpaceOnUse">
<stop stop-color="#34711B"/>
<stop offset="1" stop-color="#A0E32E"/>
</linearGradient>
<linearGradient id="paint1_linear_161_136" x1="52.8199" y1="40.9974" x2="30.4715" y2="24.5894" gradientUnits="userSpaceOnUse">
<stop stop-color="#CD9C0A"/>
<stop offset="1" stop-color="#FDCF35"/>
</linearGradient>
<linearGradient id="paint2_linear_161_136" x1="49.3514" y1="44.5267" x2="66.3246" y2="65.8732" gradientUnits="userSpaceOnUse">
<stop stop-color="#6CB31E"/>
<stop offset="1" stop-color="#1A4623"/>
</linearGradient>
</defs>
</svg>
