<svg width="1042" height="555" viewBox="0 0 1042 555" fill="none" xmlns="http://www.w3.org/2000/svg">
<g clip-path="url(#clip0_163_426)">
<path d="M961.469 438.175C960.309 440.675 959.153 443.142 957.999 445.575C956.199 449.355 954.423 453.062 952.669 456.695C951.889 458.305 951.109 459.885 950.349 461.465C941.749 479.035 933.719 494.575 926.899 507.355C920.711 518.935 911.522 528.638 900.296 535.446C889.069 542.255 876.218 545.919 863.089 546.055L711.439 547.705H709.839L696.839 547.845L685.719 547.965L651.619 548.335H650.239L632.879 548.525H632.349L525.349 549.685L429.839 550.685L418.729 550.805L349.729 551.555H349.649L304.899 552.035H304.419L162.919 553.565L120.589 554.025C116.985 554.066 113.381 553.886 109.799 553.485C108.579 553.345 107.359 553.185 106.149 552.995C86.4072 549.948 68.3054 540.228 54.8593 525.455C36.6493 505.425 23.3992 482.055 14.4992 456.695C13.2126 453.035 12.0126 449.328 10.8992 445.575C-19.9108 341.425 17.6493 207.055 85.2493 117.135C88.0826 113.375 90.9626 109.708 93.8893 106.135L93.9592 106.055C114.749 80.5351 138.059 59.2151 162.889 44.0551C206.889 17.1451 255.639 9.56509 303.589 32.1551C344.159 51.2751 382.039 60.2651 418.759 62.7051C422.469 62.9451 426.179 63.1251 429.869 63.2351C514.099 65.8851 593.039 35.5351 685.739 15.9451C689.429 15.1651 693.129 14.3951 696.859 13.6651C762.989 0.505089 836.349 -6.43491 923.589 8.15509C932.653 9.63575 941.596 11.7747 950.349 14.5551C954.196 15.7951 957.903 17.1284 961.469 18.5551C1003.11 35.4951 1025.82 66.7951 1035.47 106.015C1036.38 109.655 1037.17 113.358 1037.84 117.125C1054.95 211.465 1004.84 345.285 961.469 438.175Z" fill="#F2F2F2"/>
<path opacity="0.1" d="M497.009 445.575C496.606 449.316 495.982 453.029 495.139 456.695H588.839V445.575H497.009ZM418.759 508.385L429.869 508.295V480.825C426.059 480.655 422.349 480.485 418.759 480.305V508.385ZM185.839 445.575V456.695H384.339V445.575H185.839ZM1035.52 106.055H961.519V18.5652C957.952 17.1186 954.246 15.7852 950.399 14.5652V106.055H696.859V13.6353C693.129 14.3653 689.429 15.1353 685.739 15.9153V106.055H429.869V63.2052C426.179 63.0952 422.469 62.9152 418.759 62.6752V106.055H162.889V44.0553C138.059 59.2153 114.749 80.5353 93.9592 106.055H93.8892V106.135C90.9558 109.735 88.0758 113.402 85.2492 117.135H93.8892V445.575H10.8892C11.9958 449.329 13.1958 453.035 14.4892 456.695H93.8792V550.315C97.8736 551.537 101.951 552.469 106.079 553.105C107.289 553.295 108.509 553.455 109.729 553.595C113.311 553.996 116.915 554.176 120.519 554.135L162.849 553.675V456.675H418.759V550.885L429.869 550.765V456.695H685.739V548.055L696.859 547.935V456.695H950.349V461.465C951.109 459.885 951.889 458.305 952.669 456.695C954.423 453.062 956.199 449.355 957.999 445.575C959.152 443.149 960.309 440.682 961.469 438.175V117.175H1037.89C1037.22 113.382 1036.43 109.675 1035.52 106.055ZM162.889 445.575V117.135H418.759V445.575H162.889ZM429.889 445.575V117.135H685.739V445.575H429.889ZM950.369 445.575H696.859V117.135H950.349L950.369 445.575Z" fill="black"/>
<path d="M863.079 533.615V546.615L711.159 548.015L709.539 548.045L651.799 548.575L650.419 548.595L632.869 548.745H632.349L525.369 549.735L349.759 551.365H349.609L304.959 551.785L304.479 551.795L106.079 553.615V538.615L152.729 510.615L246.329 509.835L248.329 509.825L248.989 509.815L250.989 509.785L295.929 509.415L297.939 509.405L298.579 509.395L300.579 509.385L314.989 509.265L315.369 509.255L350.919 508.955H351.209L628.609 506.615L635.399 506.565H636.079L641.259 506.515L678.909 506.205L680.909 506.175L682.759 506.155H683.719L695.429 506.065L697.749 506.035L700.859 506.015L710.609 505.925L726.079 505.795L728.079 505.775L731.559 505.755H732.209L806.919 505.115L863.079 533.615Z" fill="#65617D"/>
<path opacity="0.2" d="M863.079 533.615V546.615L711.159 548.015L709.539 548.045L651.799 548.575L650.419 548.595L632.869 548.745H632.349L525.369 549.735L349.759 551.365H349.609L304.959 551.785L304.479 551.795L106.079 553.615V538.615L152.729 510.615L246.329 509.835L248.329 509.825L248.989 509.815L250.989 509.785L295.929 509.415L297.939 509.405L298.579 509.395L300.579 509.385L314.989 509.265L315.369 509.255L350.919 508.955H351.209L628.609 506.615L635.399 506.565H636.079L641.259 506.515L678.909 506.205L680.909 506.175L682.759 506.155H683.719L695.429 506.065L697.749 506.035L700.859 506.015L710.609 505.925L726.079 505.795L728.079 505.775L731.559 505.755H732.209L806.919 505.115L863.079 533.615Z" fill="black"/>
<path d="M296.089 483.625V508.115C296.09 509.275 295.761 510.411 295.142 511.392C294.522 512.373 293.637 513.157 292.589 513.655C291.809 514.033 290.956 514.238 290.089 514.255L255.189 514.995C254.257 515.017 253.333 514.822 252.489 514.425C251.423 513.936 250.52 513.151 249.887 512.164C249.254 511.176 248.918 510.028 248.919 508.855V483.625H296.089Z" fill="#3F3D56"/>
<path opacity="0.1" d="M296.089 483.625V508.115C296.09 509.275 295.761 510.411 295.142 511.392C294.522 512.373 293.637 513.157 292.589 513.655C291.809 514.033 290.956 514.238 290.089 514.255L255.189 514.995C254.257 515.017 253.333 514.822 252.489 514.425C251.423 513.936 250.52 513.151 249.887 512.164C249.254 511.176 248.918 510.028 248.919 508.855V483.625H296.089Z" fill="black"/>
<path d="M298.089 483.625V508.115C298.09 509.275 297.761 510.411 297.142 511.392C296.522 512.373 295.637 513.157 294.589 513.655C293.809 514.033 292.956 514.238 292.089 514.255L257.189 514.995C256.257 515.017 255.333 514.822 254.489 514.425C253.423 513.936 252.52 513.151 251.887 512.164C251.254 511.176 250.918 510.028 250.919 508.855V483.625H298.089Z" fill="#3F3D56"/>
<path d="M728.079 483.615H680.909V515.115H728.079V483.615Z" fill="#3F3D56"/>
<path opacity="0.1" d="M728.079 483.615H680.909V515.115H728.079V483.615Z" fill="black"/>
<path d="M726.079 483.615H678.909V515.115H726.079V483.615Z" fill="#3F3D56"/>
<path opacity="0.1" d="M298.079 483.615V488.585L250.909 489.845V483.615H298.079Z" fill="black"/>
<path d="M381.339 312.325V480.525C381.327 481.552 380.921 482.534 380.204 483.27C379.487 484.005 378.515 484.437 377.489 484.475L185.839 489.575H185.789C184.746 489.562 183.749 489.142 183.011 488.404C182.273 487.666 181.852 486.669 181.839 485.625V312.325C181.852 311.281 182.273 310.284 183.011 309.546C183.749 308.808 184.746 308.388 185.789 308.375H377.389C378.433 308.388 379.43 308.808 380.168 309.546C380.906 310.284 381.326 311.281 381.339 312.325Z" fill="#65617D"/>
<path opacity="0.1" d="M185.839 308.375V489.575H185.789C184.746 489.562 183.749 489.142 183.011 488.404C182.273 487.666 181.852 486.669 181.839 485.625V312.325C181.852 311.281 182.273 310.284 183.011 309.546C183.749 308.808 184.746 308.388 185.789 308.375H185.839Z" fill="black"/>
<path d="M194.579 319.115H372.079V467.365L194.579 471.365V319.115Z" fill="#F2F2F2"/>
<path opacity="0.1" d="M726.079 483.615V490.025L678.909 488.765V483.615H726.079Z" fill="black"/>
<path d="M788.339 312.325V485.625C788.326 486.677 787.899 487.682 787.15 488.421C786.401 489.161 785.392 489.575 784.339 489.575L592.649 484.475C591.623 484.437 590.651 484.005 589.935 483.27C589.218 482.534 588.811 481.552 588.799 480.525V312.325C588.812 311.281 589.233 310.284 589.971 309.546C590.709 308.808 591.706 308.388 592.749 308.375H784.349C785.4 308.378 786.407 308.793 787.154 309.532C787.9 310.271 788.326 311.275 788.339 312.325Z" fill="#65617D"/>
<path opacity="0.1" d="M788.339 312.325V485.625C788.326 486.677 787.899 487.682 787.15 488.421C786.402 489.161 785.392 489.575 784.339 489.575V308.375C785.392 308.375 786.402 308.789 787.15 309.529C787.899 310.268 788.326 311.273 788.339 312.325Z" fill="black"/>
<path d="M775.579 319.115H598.079V467.365L775.579 471.365V319.115Z" fill="#F2F2F2"/>
<path d="M583.839 312.325V480.525C583.827 481.552 583.421 482.534 582.704 483.27C581.987 484.005 581.015 484.437 579.989 484.475L388.339 489.575C387.287 489.575 386.277 489.161 385.528 488.421C384.78 487.682 384.353 486.677 384.339 485.625V312.325C384.352 311.281 384.773 310.284 385.511 309.546C386.249 308.808 387.246 308.388 388.289 308.375H579.889C580.933 308.388 581.93 308.808 582.668 309.546C583.406 310.284 583.826 311.281 583.839 312.325Z" fill="#65617D"/>
<path d="M397.079 319.115H574.579V467.365L397.079 471.365V319.115Z" fill="#4267B2"/>
<path opacity="0.1" d="M863.079 533.615V546.615L711.159 548.015L709.539 548.045L651.799 548.575L650.419 548.595L632.869 548.745H632.349L525.369 549.735L349.759 551.365H349.609L304.959 551.785L304.479 551.795L106.079 553.615V538.615L308.589 537.285H309.069L350.059 537.005H350.249L633.329 535.135H633.619L633.789 535.125H634.259L639.049 535.095H640.509L714.999 534.595L719.399 534.575L720.379 534.565L863.079 533.615Z" fill="black"/>
<path d="M487.249 349.445C515.598 349.445 538.579 326.464 538.579 298.115C538.579 269.766 515.598 246.785 487.249 246.785C458.901 246.785 435.919 269.766 435.919 298.115C435.919 326.464 458.901 349.445 487.249 349.445Z" fill="#FBBEBE"/>
<path d="M538.589 377.125C538.589 377.125 439.089 389.125 448.589 377.125C452.029 372.785 452.979 359.925 452.789 345.275C452.729 340.825 452.569 336.215 452.339 331.625C451.239 309.625 448.589 288.125 448.589 288.125C448.589 288.125 535.589 247.125 525.589 279.625C521.589 292.755 522.899 311.195 525.939 328.505C526.829 333.555 527.859 338.505 528.939 343.205C531.575 354.669 534.796 365.991 538.589 377.125Z" fill="#FBBEBE"/>
<path d="M506.119 373.055C517.629 370.925 529.819 367.055 540.649 371.515C543.499 372.685 546.119 374.395 549.039 375.375C551.959 376.355 555.159 376.595 558.199 377.285C568.879 379.705 577.539 387.835 583.099 397.285C588.659 406.735 591.539 417.425 594.359 428.005L601.259 453.835C607.259 476.285 613.259 498.925 614.649 522.135C531.116 526.917 447.392 527.394 363.809 523.565C369.249 513.225 374.809 502.255 374.349 490.565C373.889 478.875 367.159 467.345 369.589 455.825C371.139 448.485 376.159 442.435 379.229 435.605C387.979 416.085 381.169 389.815 396.549 374.955C403.469 368.275 413.549 365.745 423.179 366.065C435.459 366.475 448.029 370.305 460.179 372.175C475.739 374.535 490.439 375.935 506.119 373.055Z" fill="#FF6584"/>
<path opacity="0.1" d="M637.019 484.225L636.919 485.655V485.755L636.749 488.055L635.419 506.565L633.809 528.865L633.349 535.145L632.349 548.585V548.755L525.349 549.755L349.759 551.655V552.495H349.619V551.375L350.069 537.015L350.929 508.955L351.669 485.165L351.739 482.795C351.783 481.365 352.118 479.958 352.723 478.661C353.329 477.365 354.192 476.205 355.261 475.253C356.33 474.301 357.582 473.577 358.939 473.126C360.297 472.674 361.733 472.503 363.159 472.625C367.879 473.025 374.009 473.515 381.339 474.035L384.339 474.255C426.669 477.195 504.899 480.995 583.839 476.255C585.499 476.165 587.169 476.065 588.839 475.945C601.079 475.175 613.309 474.185 625.419 472.945C626.95 472.785 628.497 472.962 629.952 473.464C631.407 473.966 632.735 474.782 633.841 475.852C634.947 476.923 635.804 478.223 636.353 479.661C636.903 481.099 637.13 482.64 637.019 484.175V484.225Z" fill="black"/>
<path d="M349.729 552.495V551.655L525.35 549.745L632.35 548.745H632.65V548.575L633.65 535.135L634.079 529.135L635.72 506.525L637.009 488.625V488.185C637.069 487.36 637.032 486.531 636.9 485.715C636.905 485.682 636.905 485.648 636.9 485.615C636.625 483.927 635.938 482.334 634.9 480.975C633.798 479.563 632.356 478.455 630.708 477.755C629.059 477.055 627.26 476.787 625.48 476.975C613.37 478.215 601.14 479.205 588.9 479.975C587.23 480.095 585.56 480.195 583.9 480.285C504.96 484.975 426.73 481.175 384.4 478.285L381.4 478.065C374.07 477.545 367.94 477.065 363.22 476.655C360.623 476.436 358.037 477.186 355.962 478.762C353.886 480.337 352.467 482.625 351.979 485.185C351.879 485.726 351.818 486.275 351.799 486.825L351.12 508.985L350.19 537.055L349.75 551.415V552.535L349.729 552.495Z" fill="#3F3D56"/>
<path opacity="0.1" d="M637.319 491.235L636.089 506.565L634.259 529.415L633.799 535.135L632.799 547.945L632.739 548.585V548.755L632.589 550.235L632.699 548.755H632.409L525.409 549.755L349.759 551.655V551.375L350.249 537.015L351.249 508.955L351.889 490.305C351.921 489.244 352.217 488.208 352.752 487.291C353.286 486.374 354.042 485.605 354.949 485.055C356.082 484.361 357.406 484.046 358.729 484.155C360.829 484.325 363.409 484.525 366.419 484.745C371.309 485.105 377.339 485.525 384.359 485.965C397.359 486.785 413.669 487.665 432.359 488.385C484.359 490.385 554.559 491.055 621.239 485.215C624.239 484.955 627.339 484.665 630.369 484.375C631.569 484.255 632.777 484.485 633.849 485.035C634.153 485.186 634.441 485.367 634.709 485.575C635.58 486.206 636.269 487.054 636.709 488.035C636.811 488.23 636.895 488.434 636.959 488.645C637.26 489.474 637.382 490.356 637.319 491.235Z" fill="black"/>
<path opacity="0.1" d="M298.089 504.925V508.115C298.09 509.275 297.761 510.412 297.142 511.392C296.522 512.373 295.637 513.158 294.589 513.655L254.489 514.425C253.423 513.937 252.52 513.152 251.887 512.164C251.254 511.177 250.918 510.028 250.919 508.855V505.855L298.089 504.925Z" fill="black"/>
<path d="M298.579 515.535L246.329 516.535V507.865L298.579 506.865V515.535Z" fill="#3F3D56"/>
<path opacity="0.1" d="M298.579 515.535L246.329 516.535V507.865L298.579 506.865V515.535Z" fill="black"/>
<path d="M300.579 515.535L248.329 516.535V507.865L300.579 506.865V515.535Z" fill="#3F3D56"/>
<path opacity="0.1" d="M679.209 506.925V510.115C679.208 511.275 679.537 512.412 680.157 513.392C680.776 514.373 681.661 515.158 682.709 515.655L722.809 516.425C723.875 515.937 724.779 515.152 725.411 514.164C726.044 513.177 726.38 512.028 726.379 510.855V507.855L679.209 506.925Z" fill="black"/>
<path opacity="0.1" d="M678.709 517.535L730.959 518.535V509.865L678.709 508.865V517.535Z" fill="black"/>
<path d="M676.709 517.535L728.959 518.535V509.865L676.709 508.865V517.535Z" fill="#3F3D56"/>
<path d="M454.779 313.845C454.859 320.845 451.619 327.445 448.869 333.915C438.857 357.483 434.52 383.074 436.209 408.625C436.939 419.625 438.789 430.625 436.939 441.525C435.089 452.425 428.509 463.295 417.939 466.425C435.469 476.875 459.199 475.775 475.699 463.765C484.489 457.365 491.039 448.435 497.449 439.655C496.688 455.427 492.121 470.78 484.139 484.405C498.568 483.127 512.566 478.834 525.23 471.802C537.893 464.77 548.938 455.157 557.649 443.585C561.959 437.775 565.709 431.395 567.369 424.355C570.459 411.355 566.149 397.845 562.859 384.855C560.11 373.996 558.049 362.974 556.689 351.855C556.259 348.295 555.909 344.635 556.789 341.155C557.789 337.085 560.459 333.645 562.429 329.935C568.029 319.395 568.159 306.635 565.289 295.055C562.419 283.475 556.799 272.795 551.229 262.245C546.769 253.785 541.929 244.935 533.769 239.965C528.669 236.865 522.769 235.575 516.889 234.325L491.519 228.895C485.969 227.705 480.259 226.515 474.649 227.385C465.179 228.865 458.509 235.705 452.649 242.725C448.059 248.185 436.839 258.435 436.049 265.585C435.329 272.175 441.149 283.215 442.139 290.165C443.439 299.165 444.359 296.165 449.439 301.685C452.649 305.105 454.719 309.055 454.779 313.845Z" fill="#3F3D56"/>
<path d="M311.431 454.055L314.143 454.086C314.061 457.853 314.324 461.71 314.009 465.46C313.138 465.352 312.262 465.332 311.385 465.296C311.478 461.557 311.558 457.793 311.431 454.055Z" fill="#225030"/>
<path d="M289.902 454.083L292.463 454.041C292.393 456.972 292.441 459.914 292.45 462.847L297.878 462.883L297.853 465.271C295.233 465.113 292.571 465.24 289.943 465.207C289.967 461.5 289.923 457.79 289.902 454.083Z" fill="#225030"/>
<path d="M298.766 454.065C302.029 454.14 305.291 454.08 308.555 454.037C308.542 454.866 308.476 455.699 308.429 456.527C307.284 456.422 306.132 456.428 304.983 456.416C304.862 458.182 304.976 460 305.011 461.771L305.039 465.355L302.353 465.232L302.35 456.373L298.797 456.39L298.766 454.065Z" fill="#225030"/>
<path d="M229.879 453.827C231.1 453.891 232.283 454.338 233.333 454.955C233.728 455.187 233.965 455.383 234.083 455.828L233.954 455.924C233.896 455.968 233.84 456.014 233.781 456.056C233.258 456.427 232.998 457.069 232.693 457.623C232.071 457.105 231.481 456.598 230.679 456.39C229.827 456.169 228.951 456.264 228.194 456.722C227.421 457.189 226.898 457.941 226.69 458.815C226.469 459.747 226.682 460.759 227.224 461.544C227.659 462.173 228.313 462.656 229.075 462.786C230.025 462.948 231.072 462.603 231.839 462.049L232.632 461.477L232.924 461.664L234.241 463.201C232.988 464.269 231.803 465.148 230.102 465.35C228.715 465.515 227.305 465.107 226.215 464.237C224.976 463.249 224.176 461.763 224.026 460.186C223.883 458.668 224.326 457.079 225.317 455.909C226.512 454.496 228.107 454.008 229.879 453.827Z" fill="#225030"/>
<path d="M268.572 453.812C270.222 453.795 271.536 454.394 272.987 455.09C272.861 455.221 272.74 455.357 272.614 455.488C272.228 455.886 272.152 456.128 272.029 456.672C271.975 456.91 271.928 456.916 271.763 457.084C271.151 457.083 270.632 456.777 270.076 456.554C269.371 456.271 268.519 455.916 267.782 456.291C267.451 456.459 267.238 456.745 267.122 457.088C267.623 458.595 270.922 458.522 272.215 459.451C272.782 459.859 273.134 460.439 273.242 461.13C273.393 462.104 273.188 463.022 272.582 463.804C271.643 465.016 270.083 465.278 268.655 465.453C266.98 465.282 265.831 464.705 264.474 463.774C264.982 463.048 265.312 462.318 265.603 461.489C266.041 461.771 266.482 462.055 266.95 462.285C267.912 462.758 268.751 463.078 269.805 462.684C270.249 462.517 270.65 462.331 270.863 461.886C270.52 461.247 266.726 460.401 265.712 459.678C265.152 459.279 264.727 458.746 264.634 458.049C264.51 457.114 264.964 455.939 265.524 455.205C266.289 454.201 267.394 453.976 268.572 453.812Z" fill="#225030"/>
<path d="M276.323 454.035C277.155 454.064 277.995 454.044 278.828 454.045C278.91 456.068 278.37 460.985 279.745 462.4C280.199 462.867 280.815 463.049 281.456 463.024C282.065 463 282.615 462.801 283.031 462.345C284.315 460.941 283.831 456.045 283.808 454.055C284.676 454.097 285.553 454.06 286.422 454.048L286.443 456.368C286.47 458.729 286.908 462.05 285.129 463.892C284.147 464.908 282.682 465.409 281.289 465.419C279.864 465.428 278.457 464.916 277.48 463.858C275.495 461.709 276.262 456.813 276.323 454.035Z" fill="#225030"/>
<path d="M244.593 404.913L253.774 404.875C253.77 406.12 254.078 411.243 253.559 411.944L253.142 411.931C250.14 411.847 247.136 412.035 244.133 412.022C244.038 410.676 243.572 406.021 244.132 405.002L244.593 404.913Z" fill="#225030"/>
<path d="M243.977 394.596C247.247 394.551 250.517 394.579 253.787 394.594C253.793 395.785 254.12 400.994 253.622 401.678C250.422 401.576 247.219 401.824 244.018 401.702L243.977 394.596Z" fill="#225030"/>
<path d="M336.901 453.819C338.169 453.826 339.462 454.226 340.556 454.869C341.014 455.138 341.291 455.363 341.428 455.894C340.702 456.328 340.375 456.818 339.896 457.494C338.983 456.862 338.066 456.283 336.917 456.238C336.104 456.206 335.392 456.491 334.809 457.057C334.164 457.684 333.828 458.491 333.826 459.389C333.823 460.383 334.206 461.392 334.929 462.085C335.567 462.696 336.481 463.07 337.369 462.999C337.969 462.951 338.787 462.598 339.12 462.07C339.33 461.737 339.318 461.467 339.273 461.093L339.012 460.926C338.427 460.967 337.666 461.112 337.177 460.696C336.668 460.263 336.793 459.373 336.796 458.766L338.455 458.766C339.678 458.743 340.902 458.745 342.124 458.736C342.151 460.203 342.372 462.019 341.533 463.301C340.764 464.476 339.153 465.055 337.82 465.281C336.3 465.538 334.789 465.212 333.551 464.28C332.31 463.346 331.479 461.949 331.286 460.404C331.095 458.865 331.48 457.239 332.45 456.015C333.583 454.584 335.152 454.021 336.901 453.819Z" fill="#225030"/>
<path d="M264.832 415.166C265.741 415.14 266.655 415.159 267.564 415.161L267.525 422.242C265.064 422.101 262.555 422.216 260.089 422.236C259.067 422.245 258.045 422.209 257.024 422.184C256.953 419.857 256.988 417.521 256.986 415.193C259.603 415.218 262.215 415.214 264.832 415.166Z" fill="#225030"/>
<path d="M257.015 404.858C260.519 404.931 264.026 404.883 267.531 404.862C267.546 407.214 267.583 409.57 267.506 411.921C264.047 411.879 260.588 412.059 257.127 411.984C256.995 409.609 257.003 407.235 257.015 404.858Z" fill="#225030"/>
<path d="M258.986 454.012L261.425 454.059C261.276 457.851 261.647 461.701 261.271 465.48C260.901 465.447 260.513 465.424 260.166 465.282C258.795 464.72 255.329 460.403 254.081 459.105C254.003 461.189 254.051 463.276 254.075 465.361L251.551 465.283C251.475 461.535 251.488 457.8 251.562 454.052L253.338 454.099C254.289 455.146 257.701 459.578 258.615 460.003C259.072 459.437 258.96 455.008 258.986 454.012Z" fill="#225030"/>
<path d="M256.999 394.595C260.515 394.534 264.033 394.56 267.549 394.587L267.567 401.727C264.051 401.601 260.528 401.796 257.009 401.653C256.968 399.302 256.996 396.947 256.999 394.595Z" fill="#225030"/>
<path d="M317.968 454.001L319.759 454.039C321.725 456.164 323.598 458.374 325.621 460.448C325.688 458.314 325.622 456.18 325.701 454.044C326.499 454.067 327.301 454.057 328.1 454.06C328.221 457.821 327.926 461.602 328.113 465.349L326.371 465.406C324.543 463.173 322.56 461.029 320.539 458.97C320.532 461.09 320.571 463.211 320.594 465.332L318.024 465.327C318.128 461.623 318.161 457.702 317.968 454.001Z" fill="#225030"/>
<path d="M239.499 416.525C239.507 416.171 239.376 415.976 239.214 415.668L239.121 415.492L239.273 415.444L239.254 415.278L239.329 415.219C239.611 415.186 239.88 415.153 240.155 415.083L240.06 414.842L240.441 414.805C240.479 414.853 240.508 414.909 240.554 414.949C240.62 415.004 240.7 415.041 240.773 415.087C242.228 415.426 243.965 415.246 245.46 415.23C248.236 415.2 251.02 415.114 253.794 415.216L253.76 422.28C250.41 422.129 247.05 422.169 243.697 422.162C242.299 420.306 240.751 418.48 239.499 416.525Z" fill="#225030"/>
<path d="M241.264 453.95C242.547 453.829 243.668 453.855 244.87 454.408C246.378 455.102 247.52 456.452 248.038 458.021C248.498 459.411 248.422 460.883 247.756 462.193C246.893 463.89 245.496 464.693 243.765 465.28C242.411 465.465 241.003 465.371 239.748 464.798C238.441 464.2 237.433 463.071 236.936 461.729C236.365 460.182 236.552 458.424 237.3 456.968C238.167 455.28 239.521 454.485 241.264 453.95Z" fill="#225030"/>
<path d="M241.583 456.294C242.175 456.284 242.762 456.279 243.329 456.471C244.258 456.786 245.056 457.541 245.433 458.445C245.773 459.261 245.8 460.237 245.435 461.051C245.027 461.962 244.231 462.584 243.313 462.917C242.724 462.952 242.044 463.034 241.473 462.855C240.639 462.594 239.896 461.911 239.516 461.131C239.086 460.246 239.026 459.188 239.408 458.274C239.824 457.28 240.597 456.665 241.583 456.294Z" fill="#F8F9F8"/>
<path d="M311.792 332.053C312.081 332.034 312.387 332.029 312.675 332.065C313.521 332.171 314.492 332.923 314.96 333.613C315.296 334.109 315.549 334.861 315.402 335.462C315.258 336.051 304.606 352.889 303.74 353.984C303.17 354.704 302.579 355.136 301.775 355.569C301.029 355.639 300.431 355.635 299.762 355.258C298.788 354.71 298.42 353.736 298.104 352.731C298.114 352.695 298.124 352.658 298.134 352.621L298.188 352.439C298.277 352.132 298.363 351.828 298.488 351.532C299.521 349.078 301.716 346.25 303.164 343.968L307.388 337.317C308.278 335.921 309.134 334.413 310.22 333.162C310.704 332.605 311.112 332.333 311.792 332.053Z" fill="#EBBB23"/>
<path d="M254.983 332.062C255.506 332.014 256.06 331.983 256.558 332.185C257.146 332.423 257.556 332.898 257.939 333.384C260.757 336.952 263.619 341.894 266.131 345.83C267.381 347.79 269.016 349.833 269.944 351.959C270.197 352.54 270.201 353.148 269.952 353.735C269.533 354.725 268.634 355.284 267.687 355.683C266.99 355.726 266.399 355.717 265.753 355.412C265.145 355.123 264.694 354.616 264.3 354.085C262.637 351.845 261.251 349.258 259.75 346.892L255.375 340.014C254.336 338.385 253.072 336.691 252.381 334.882C252.486 334.556 252.599 334.239 252.746 333.929C253.242 332.888 253.929 332.452 254.983 332.062Z" fill="#EBBB23"/>
<path d="M283.598 324.002C284.144 323.992 284.607 324.022 285.111 324.252C285.922 324.621 286.532 325.309 286.821 326.152C287.13 327.053 287.167 345.72 287.001 348.061C286.964 348.584 286.9 349.095 286.638 349.559C286.134 350.449 285.334 350.819 284.394 351.113C283.929 351.11 283.476 351.101 283.031 350.948C282.198 350.661 281.609 350.035 281.27 349.233C280.926 348.416 280.95 326.314 281.289 325.568C281.701 324.666 282.717 324.262 283.598 324.002Z" fill="#EBBB23"/>
<path d="M235.525 351.376C235.759 351.381 235.979 351.417 236.202 351.487C237.984 352.045 242.317 355.09 244.201 356.185C246.263 357.383 248.326 358.619 250.413 359.767C252.175 360.737 254.051 361.629 255.713 362.762C256.471 363.278 257.19 363.897 257.609 364.729C257.934 365.373 258.049 366.111 257.78 366.796C257.378 367.82 256.35 368.469 255.406 368.92C255.12 368.897 254.828 368.85 254.552 368.769C252.737 368.241 248.403 365.334 246.571 364.249C242.648 361.926 238.52 359.734 234.769 357.153C234.237 356.787 233.606 356.376 233.307 355.79C232.942 355.076 232.836 354.276 233.122 353.515C233.545 352.387 234.47 351.824 235.525 351.376Z" fill="#EBBB23"/>
<path d="M331.326 351.39C331.911 351.361 332.416 351.357 332.965 351.585C333.788 351.926 334.531 352.705 334.849 353.538C335.096 354.185 335.072 354.918 334.789 355.549C334.475 356.249 333.934 356.789 333.323 357.237C330.858 359.044 327.906 360.416 325.265 361.97L318.504 366.003C316.954 366.928 315.357 368.008 313.666 368.648C313.119 368.776 312.608 368.867 312.065 368.669C311.311 368.394 310.703 367.804 310.365 367.081C310.014 366.33 309.98 365.461 310.318 364.698C310.632 363.988 311.313 363.398 311.927 362.948C314.264 361.233 316.998 359.962 319.471 358.443L327.073 353.764C328.457 352.931 329.829 352.009 331.326 351.39Z" fill="#EBBB23"/>
<path d="M271.507 408.582C273.384 407.808 275.315 406.842 276.805 405.441C277.805 404.5 278.774 403.308 279.39 402.077C279.661 401.535 279.889 400.883 280.218 400.381C280.373 400.144 280.566 400.053 280.819 399.952C280.903 399.918 280.988 399.888 281.073 399.856L281.261 399.355L281.208 399.178C282.069 400.717 282.584 403.439 283.495 404.665C283.554 404.743 283.616 404.82 283.677 404.897C284.268 406.209 284.478 407.775 284.681 409.189C285.608 415.645 284.877 421.92 282.571 428.024C280.969 432.266 278.705 436.139 276.131 439.853C264.042 436.98 256.576 433.791 246.958 425.716C253.843 425.513 260.75 425.654 267.639 425.594L267.588 431.503L271.219 431.502C271.203 426.686 271.018 421.793 271.225 416.987L271.395 417.038L271.466 416.675L271.664 416.767L271.484 416.395C271.661 413.824 271.514 411.163 271.507 408.582Z" fill="#225030"/>
<path d="M229.727 370.397C241.176 372.175 254.042 375.771 264.141 381.511C273.187 386.653 280.861 394.689 283.676 404.897C283.616 404.82 283.554 404.743 283.495 404.665C282.584 403.439 282.069 400.717 281.208 399.178L281.26 399.355L281.073 399.856C280.988 399.888 280.903 399.918 280.819 399.952C280.565 400.052 280.373 400.144 280.217 400.381C279.889 400.883 279.66 401.535 279.389 402.077C278.773 403.308 277.805 404.5 276.804 405.441C275.315 406.842 273.384 407.808 271.507 408.582C271.514 411.163 271.66 413.824 271.484 416.395L271.664 416.767L271.465 416.675L271.395 417.038L271.225 416.987C270.894 408.468 271.405 399.899 271.112 391.37C260.919 391.151 250.714 391.417 240.52 391.283C240.678 396.471 240.565 401.687 240.562 406.878C240.56 409.595 240.427 412.39 240.773 415.087C240.7 415.041 240.62 415.004 240.554 414.948C240.508 414.909 240.479 414.853 240.441 414.805L240.06 414.842L240.155 415.083C239.88 415.153 239.611 415.186 239.329 415.218L239.254 415.278L239.273 415.443L239.121 415.492L239.214 415.668C239.376 415.976 239.507 416.171 239.499 416.525C237.947 414.723 236.704 412.347 235.675 410.224C229.591 397.677 230.401 383.926 229.727 370.397Z" fill="url(#paint0_linear_163_426)"/>
<path d="M282.288 358.179C288.111 357.807 293.746 359.494 298.439 362.952C304.12 367.137 306.925 373.313 307.968 380.115C306.473 380.422 304.987 380.992 303.551 381.508C297.533 383.668 291.666 386.625 286.773 390.786L285.64 391.893C278.526 382.022 272.103 378.286 261.655 372.535C262.955 370.361 263.981 368.176 265.655 366.226C269.923 361.256 275.827 358.64 282.288 358.179Z" fill="url(#paint1_linear_163_426)"/>
<path d="M336.187 373.753C337.206 374.847 337.652 380.776 337.749 382.63C338.482 396.566 333.247 411.773 323.858 422.109C313.964 433.002 299.88 439.544 285.2 440.223C287.769 430.954 293.55 422.37 301.003 416.308C306.04 412.184 314.565 407.477 321.201 407.141L320.979 404.905C312.104 404.836 305.064 405.646 297.294 410.324C295.643 411.317 293.982 412.365 292.493 413.59C292.625 408.576 290.838 402.814 288.615 398.334C293.843 393.508 299.867 390.025 306.571 387.657C317.494 383.798 328.424 383.746 336.187 373.753Z" fill="url(#paint2_linear_163_426)"/>
<path d="M715.431 454.055L718.143 454.086C718.061 457.853 718.324 461.71 718.009 465.46C717.138 465.352 716.262 465.332 715.385 465.296C715.478 461.557 715.558 457.793 715.431 454.055Z" fill="#225030"/>
<path d="M693.902 454.083L696.463 454.041C696.393 456.972 696.441 459.914 696.45 462.847L701.878 462.883L701.853 465.271C699.233 465.113 696.571 465.24 693.943 465.207C693.967 461.5 693.923 457.79 693.902 454.083Z" fill="#225030"/>
<path d="M702.766 454.065C706.029 454.14 709.291 454.08 712.555 454.037C712.542 454.866 712.476 455.699 712.429 456.527C711.284 456.422 710.132 456.428 708.983 456.416C708.862 458.182 708.976 460 709.011 461.771L709.039 465.355L706.353 465.232L706.35 456.373L702.797 456.39L702.766 454.065Z" fill="#225030"/>
<path d="M633.879 453.827C635.1 453.891 636.283 454.338 637.333 454.955C637.728 455.187 637.965 455.383 638.083 455.828L637.954 455.924C637.896 455.968 637.84 456.014 637.781 456.056C637.258 456.427 636.998 457.069 636.693 457.623C636.071 457.105 635.481 456.598 634.679 456.39C633.827 456.169 632.951 456.264 632.194 456.722C631.421 457.189 630.898 457.941 630.69 458.815C630.469 459.747 630.682 460.759 631.224 461.544C631.659 462.173 632.313 462.656 633.075 462.786C634.025 462.948 635.072 462.603 635.839 462.049L636.632 461.477L636.924 461.664L638.241 463.201C636.988 464.269 635.803 465.148 634.102 465.35C632.715 465.515 631.305 465.107 630.215 464.237C628.976 463.249 628.176 461.763 628.026 460.186C627.883 458.668 628.326 457.079 629.317 455.909C630.512 454.496 632.107 454.008 633.879 453.827Z" fill="#225030"/>
<path d="M672.572 453.812C674.222 453.795 675.536 454.394 676.987 455.09C676.861 455.221 676.74 455.357 676.614 455.488C676.228 455.886 676.152 456.128 676.029 456.672C675.975 456.91 675.928 456.916 675.763 457.084C675.151 457.083 674.632 456.777 674.076 456.554C673.371 456.271 672.519 455.916 671.782 456.291C671.451 456.459 671.238 456.745 671.122 457.088C671.623 458.595 674.922 458.522 676.215 459.451C676.782 459.859 677.134 460.439 677.242 461.13C677.393 462.104 677.188 463.022 676.582 463.804C675.643 465.016 674.083 465.278 672.655 465.453C670.98 465.282 669.831 464.705 668.474 463.774C668.982 463.048 669.312 462.318 669.603 461.489C670.041 461.771 670.482 462.055 670.95 462.285C671.912 462.758 672.751 463.078 673.805 462.684C674.249 462.517 674.65 462.331 674.863 461.886C674.52 461.247 670.726 460.401 669.712 459.678C669.152 459.279 668.727 458.746 668.634 458.049C668.51 457.114 668.964 455.939 669.524 455.205C670.289 454.201 671.394 453.976 672.572 453.812Z" fill="#225030"/>
<path d="M680.323 454.035C681.155 454.064 681.995 454.044 682.828 454.045C682.91 456.068 682.37 460.985 683.745 462.4C684.199 462.867 684.815 463.049 685.456 463.024C686.065 463 686.615 462.801 687.031 462.345C688.315 460.941 687.831 456.045 687.808 454.055C688.676 454.097 689.553 454.06 690.422 454.048L690.443 456.368C690.47 458.729 690.908 462.05 689.129 463.892C688.147 464.908 686.682 465.409 685.289 465.419C683.864 465.428 682.457 464.916 681.48 463.858C679.495 461.709 680.262 456.813 680.323 454.035Z" fill="#225030"/>
<path d="M648.593 404.913L657.774 404.875C657.77 406.12 658.078 411.243 657.559 411.944L657.142 411.931C654.14 411.847 651.136 412.035 648.133 412.022C648.038 410.676 647.572 406.021 648.132 405.002L648.593 404.913Z" fill="#225030"/>
<path d="M647.977 394.596C651.247 394.551 654.517 394.579 657.787 394.594C657.793 395.785 658.12 400.994 657.622 401.678C654.422 401.576 651.219 401.824 648.018 401.702L647.977 394.596Z" fill="#225030"/>
<path d="M740.901 453.819C742.169 453.826 743.462 454.226 744.556 454.869C745.014 455.138 745.291 455.363 745.428 455.894C744.702 456.328 744.375 456.818 743.896 457.494C742.983 456.862 742.066 456.283 740.917 456.238C740.104 456.206 739.392 456.491 738.809 457.057C738.164 457.684 737.828 458.491 737.826 459.389C737.823 460.383 738.206 461.392 738.929 462.085C739.567 462.696 740.481 463.07 741.369 462.999C741.969 462.951 742.787 462.598 743.12 462.07C743.33 461.737 743.318 461.467 743.273 461.093L743.012 460.926C742.427 460.967 741.666 461.112 741.177 460.696C740.668 460.263 740.793 459.373 740.796 458.766L742.455 458.766C743.678 458.743 744.902 458.745 746.124 458.736C746.151 460.203 746.372 462.019 745.533 463.301C744.764 464.476 743.153 465.055 741.82 465.281C740.3 465.538 738.789 465.212 737.551 464.28C736.31 463.346 735.479 461.949 735.286 460.404C735.095 458.865 735.48 457.239 736.45 456.015C737.583 454.584 739.152 454.021 740.901 453.819Z" fill="#225030"/>
<path d="M668.832 415.166C669.741 415.14 670.655 415.159 671.564 415.161L671.525 422.242C669.064 422.101 666.555 422.216 664.089 422.236C663.067 422.245 662.045 422.209 661.024 422.184C660.953 419.857 660.988 417.521 660.986 415.193C663.603 415.218 666.215 415.214 668.832 415.166Z" fill="#225030"/>
<path d="M661.015 404.858C664.519 404.931 668.026 404.883 671.531 404.862C671.546 407.214 671.583 409.57 671.506 411.921C668.047 411.879 664.588 412.059 661.127 411.984C660.995 409.609 661.003 407.235 661.015 404.858Z" fill="#225030"/>
<path d="M662.986 454.012L665.425 454.059C665.276 457.851 665.647 461.701 665.271 465.48C664.901 465.447 664.513 465.424 664.166 465.282C662.795 464.72 659.329 460.403 658.081 459.105C658.003 461.189 658.051 463.276 658.075 465.361L655.551 465.283C655.475 461.535 655.488 457.8 655.562 454.052L657.338 454.099C658.289 455.146 661.701 459.578 662.615 460.003C663.072 459.437 662.96 455.008 662.986 454.012Z" fill="#225030"/>
<path d="M660.999 394.595C664.515 394.534 668.033 394.56 671.549 394.587L671.567 401.727C668.051 401.601 664.528 401.796 661.009 401.653C660.968 399.302 660.996 396.947 660.999 394.595Z" fill="#225030"/>
<path d="M721.968 454.001L723.759 454.039C725.725 456.164 727.598 458.374 729.621 460.448C729.688 458.314 729.622 456.18 729.701 454.044C730.499 454.067 731.301 454.057 732.1 454.06C732.221 457.821 731.926 461.602 732.113 465.349L730.371 465.406C728.543 463.173 726.56 461.029 724.539 458.97C724.532 461.09 724.571 463.211 724.594 465.332L722.024 465.327C722.128 461.623 722.161 457.702 721.968 454.001Z" fill="#225030"/>
<path d="M643.499 416.525C643.507 416.171 643.376 415.976 643.214 415.668L643.121 415.492L643.273 415.444L643.254 415.278L643.329 415.219C643.611 415.186 643.88 415.153 644.155 415.083L644.06 414.842L644.441 414.805C644.479 414.853 644.508 414.909 644.554 414.949C644.62 415.004 644.7 415.041 644.773 415.087C646.228 415.426 647.965 415.246 649.46 415.23C652.236 415.2 655.02 415.114 657.794 415.216L657.76 422.28C654.41 422.129 651.05 422.169 647.697 422.162C646.299 420.306 644.751 418.48 643.499 416.525Z" fill="#225030"/>
<path d="M645.264 453.95C646.547 453.829 647.668 453.855 648.87 454.408C650.378 455.102 651.52 456.452 652.038 458.021C652.498 459.411 652.422 460.883 651.756 462.193C650.893 463.89 649.496 464.693 647.765 465.28C646.411 465.465 645.003 465.371 643.748 464.798C642.441 464.2 641.433 463.071 640.936 461.729C640.365 460.182 640.552 458.424 641.3 456.968C642.167 455.28 643.521 454.485 645.264 453.95Z" fill="#225030"/>
<path d="M645.583 456.294C646.175 456.284 646.762 456.279 647.329 456.471C648.258 456.786 649.056 457.541 649.433 458.445C649.773 459.261 649.8 460.237 649.435 461.051C649.027 461.962 648.231 462.584 647.313 462.917C646.724 462.952 646.044 463.034 645.473 462.855C644.639 462.594 643.896 461.911 643.516 461.131C643.086 460.246 643.026 459.188 643.408 458.274C643.824 457.28 644.597 456.665 645.583 456.294Z" fill="#F8F9F8"/>
<path d="M715.792 332.053C716.081 332.034 716.387 332.029 716.675 332.065C717.521 332.171 718.492 332.923 718.96 333.613C719.296 334.109 719.549 334.861 719.402 335.462C719.258 336.051 708.606 352.889 707.74 353.984C707.17 354.704 706.579 355.136 705.775 355.569C705.029 355.639 704.431 355.635 703.762 355.258C702.788 354.71 702.42 353.736 702.104 352.731C702.114 352.695 702.124 352.658 702.134 352.621L702.188 352.439C702.277 352.132 702.363 351.828 702.488 351.532C703.521 349.078 705.716 346.25 707.164 343.968L711.388 337.317C712.278 335.921 713.134 334.413 714.22 333.162C714.704 332.605 715.112 332.333 715.792 332.053Z" fill="#EBBB23"/>
<path d="M658.983 332.062C659.506 332.014 660.06 331.983 660.558 332.185C661.146 332.423 661.556 332.898 661.939 333.384C664.757 336.952 667.619 341.894 670.131 345.83C671.381 347.79 673.016 349.833 673.944 351.959C674.197 352.54 674.201 353.148 673.952 353.735C673.533 354.725 672.634 355.284 671.687 355.683C670.99 355.726 670.399 355.717 669.753 355.412C669.145 355.123 668.694 354.616 668.3 354.085C666.637 351.845 665.251 349.258 663.75 346.892L659.375 340.014C658.336 338.385 657.072 336.691 656.381 334.882C656.486 334.556 656.599 334.239 656.746 333.929C657.242 332.888 657.929 332.452 658.983 332.062Z" fill="#EBBB23"/>
<path d="M687.598 324.002C688.144 323.992 688.607 324.022 689.111 324.252C689.922 324.621 690.532 325.309 690.821 326.152C691.13 327.053 691.167 345.72 691.001 348.061C690.964 348.584 690.9 349.095 690.638 349.559C690.134 350.449 689.334 350.819 688.394 351.113C687.929 351.11 687.476 351.101 687.031 350.948C686.198 350.661 685.609 350.035 685.27 349.233C684.926 348.416 684.95 326.314 685.289 325.568C685.701 324.666 686.717 324.262 687.598 324.002Z" fill="#EBBB23"/>
<path d="M639.525 351.376C639.759 351.381 639.979 351.417 640.202 351.487C641.984 352.045 646.317 355.09 648.201 356.185C650.263 357.383 652.326 358.619 654.413 359.767C656.175 360.737 658.051 361.629 659.713 362.762C660.471 363.278 661.19 363.897 661.609 364.729C661.934 365.373 662.049 366.111 661.78 366.796C661.378 367.82 660.35 368.469 659.406 368.92C659.12 368.897 658.828 368.85 658.552 368.769C656.737 368.241 652.403 365.334 650.571 364.249C646.648 361.926 642.52 359.734 638.769 357.153C638.237 356.787 637.606 356.376 637.307 355.79C636.942 355.076 636.836 354.276 637.122 353.515C637.545 352.387 638.47 351.824 639.525 351.376Z" fill="#EBBB23"/>
<path d="M735.326 351.39C735.911 351.361 736.416 351.357 736.965 351.585C737.788 351.926 738.531 352.705 738.849 353.538C739.096 354.185 739.072 354.918 738.789 355.549C738.475 356.249 737.934 356.789 737.323 357.237C734.858 359.044 731.906 360.416 729.265 361.97L722.504 366.003C720.954 366.928 719.357 368.008 717.666 368.648C717.119 368.776 716.608 368.867 716.065 368.669C715.311 368.394 714.703 367.804 714.365 367.081C714.014 366.33 713.98 365.461 714.318 364.698C714.632 363.988 715.313 363.398 715.927 362.948C718.264 361.233 720.998 359.962 723.471 358.443L731.073 353.764C732.457 352.931 733.829 352.009 735.326 351.39Z" fill="#EBBB23"/>
<path d="M675.507 408.582C677.384 407.808 679.315 406.842 680.805 405.441C681.805 404.5 682.774 403.308 683.39 402.077C683.661 401.535 683.889 400.883 684.218 400.381C684.373 400.144 684.566 400.053 684.819 399.952C684.903 399.918 684.988 399.888 685.073 399.856L685.261 399.355L685.208 399.178C686.069 400.717 686.584 403.439 687.495 404.665C687.554 404.743 687.616 404.82 687.677 404.897C688.268 406.209 688.478 407.775 688.681 409.189C689.608 415.645 688.877 421.92 686.571 428.024C684.969 432.266 682.705 436.139 680.131 439.853C668.042 436.98 660.576 433.791 650.958 425.716C657.843 425.513 664.75 425.654 671.639 425.594L671.588 431.503L675.219 431.502C675.203 426.686 675.018 421.793 675.225 416.987L675.395 417.038L675.466 416.675L675.664 416.767L675.484 416.395C675.661 413.824 675.514 411.163 675.507 408.582Z" fill="#225030"/>
<path d="M633.727 370.397C645.176 372.175 658.042 375.771 668.141 381.511C677.187 386.653 684.861 394.689 687.676 404.897C687.616 404.82 687.554 404.743 687.495 404.665C686.584 403.439 686.069 400.717 685.208 399.178L685.26 399.355L685.073 399.856C684.988 399.888 684.903 399.918 684.819 399.952C684.565 400.052 684.373 400.144 684.217 400.381C683.889 400.883 683.66 401.535 683.389 402.077C682.773 403.308 681.805 404.5 680.804 405.441C679.315 406.842 677.384 407.808 675.507 408.582C675.514 411.163 675.66 413.824 675.484 416.395L675.664 416.767L675.465 416.675L675.395 417.038L675.225 416.987C674.894 408.468 675.405 399.899 675.112 391.37C664.919 391.151 654.714 391.417 644.52 391.283C644.678 396.471 644.565 401.687 644.562 406.878C644.56 409.595 644.427 412.39 644.773 415.087C644.7 415.041 644.62 415.004 644.554 414.948C644.508 414.909 644.479 414.853 644.441 414.805L644.06 414.842L644.155 415.083C643.88 415.153 643.611 415.186 643.329 415.218L643.254 415.278L643.273 415.443L643.121 415.492L643.214 415.668C643.376 415.976 643.507 416.171 643.499 416.525C641.947 414.723 640.704 412.347 639.675 410.224C633.591 397.677 634.401 383.926 633.727 370.397Z" fill="url(#paint3_linear_163_426)"/>
<path d="M686.288 358.179C692.111 357.807 697.746 359.494 702.439 362.952C708.12 367.137 710.925 373.313 711.968 380.115C710.473 380.422 708.987 380.992 707.551 381.508C701.533 383.668 695.666 386.625 690.773 390.786L689.64 391.893C682.526 382.022 676.103 378.286 665.655 372.535C666.955 370.361 667.981 368.176 669.655 366.226C673.923 361.256 679.827 358.64 686.288 358.179Z" fill="url(#paint4_linear_163_426)"/>
<path d="M740.187 373.753C741.206 374.847 741.652 380.776 741.749 382.63C742.482 396.566 737.247 411.773 727.858 422.109C717.964 433.002 703.88 439.544 689.2 440.223C691.769 430.954 697.55 422.37 705.003 416.308C710.04 412.184 718.565 407.477 725.201 407.141L724.979 404.905C716.104 404.836 709.064 405.646 701.294 410.324C699.643 411.317 697.982 412.365 696.493 413.59C696.625 408.576 694.838 402.814 692.615 398.334C697.843 393.508 703.867 390.025 710.571 387.657C721.494 383.798 732.424 383.746 740.187 373.753Z" fill="url(#paint5_linear_163_426)"/>
</g>
<defs>
<linearGradient id="paint0_linear_163_426" x1="265.03" y1="413.87" x2="232.919" y2="368.662" gradientUnits="userSpaceOnUse">
<stop stop-color="#34711B"/>
<stop offset="1" stop-color="#A0E32E"/>
</linearGradient>
<linearGradient id="paint1_linear_163_426" x1="303.233" y1="385.494" x2="269.711" y2="360.881" gradientUnits="userSpaceOnUse">
<stop stop-color="#CD9C0A"/>
<stop offset="1" stop-color="#FDCF35"/>
</linearGradient>
<linearGradient id="paint2_linear_163_426" x1="298.03" y1="390.788" x2="323.489" y2="422.809" gradientUnits="userSpaceOnUse">
<stop stop-color="#6CB31E"/>
<stop offset="1" stop-color="#1A4623"/>
</linearGradient>
<linearGradient id="paint3_linear_163_426" x1="669.03" y1="413.87" x2="636.919" y2="368.662" gradientUnits="userSpaceOnUse">
<stop stop-color="#34711B"/>
<stop offset="1" stop-color="#A0E32E"/>
</linearGradient>
<linearGradient id="paint4_linear_163_426" x1="707.233" y1="385.494" x2="673.711" y2="360.881" gradientUnits="userSpaceOnUse">
<stop stop-color="#CD9C0A"/>
<stop offset="1" stop-color="#FDCF35"/>
</linearGradient>
<linearGradient id="paint5_linear_163_426" x1="702.03" y1="390.788" x2="727.489" y2="422.809" gradientUnits="userSpaceOnUse">
<stop stop-color="#6CB31E"/>
<stop offset="1" stop-color="#1A4623"/>
</linearGradient>
<clipPath id="clip0_163_426">
<rect width="1041.28" height="554.141" fill="white"/>
</clipPath>
</defs>
</svg>
