<svg width="1088" height="688" viewBox="0 0 1088 688" fill="none" xmlns="http://www.w3.org/2000/svg">
<g clip-path="url(#clip0_163_29)">
<path d="M961.81 454.442C956.54 499.592 945.59 535.842 930.56 564.752C910.56 603.272 876.35 618.792 845.79 635.032C836.959 639.716 827.778 643.708 818.33 646.972C762.72 666.272 700.48 661.152 651.59 650.962C617.299 643.809 582.492 639.408 547.5 637.802C537.52 637.352 527.53 637.129 517.53 637.132C502.11 637.152 224.46 642.422 156.86 505.562C140.17 471.802 128.73 430.562 124.62 380.292C112.99 238.172 176.91 144.832 259.36 83.8221C415.33 -31.5879 629.12 -26.7479 782.79 91.7021C885.15 170.602 980.99 290.012 961.81 454.442Z" fill="#3F3D56"/>
<path d="M930.56 564.752C910.56 603.272 883.35 628.792 852.79 645.032C843.959 649.716 834.778 653.708 825.33 656.972C769.72 676.272 707.48 671.152 658.59 660.962C624.299 653.809 589.492 649.408 554.5 647.802C544.52 647.352 534.53 647.129 524.53 647.132C509.11 647.152 493.693 647.725 478.28 648.852C378.11 656.212 224.46 642.422 156.86 505.562L326 177.962L388.95 339.581L409.04 391.171L464.41 315.191L493 275.962L623.2 425.232L660 343.962L914.78 551.881L928.99 563.471L930.56 564.752Z" fill="#F2F2F2"/>
<path opacity="0.1" d="M302 282.962L328 225.962L364 308.962L333 248.962L302 282.962Z" fill="black"/>
<path opacity="0.1" d="M554.5 647.802C544.52 647.352 534.53 647.129 524.53 647.132L409.04 391.172L554.5 647.802Z" fill="black"/>
<path opacity="0.1" d="M464.411 315.191L493 292.962L623 442.962L491 314.962L464.411 315.191Z" fill="black"/>
<path opacity="0.1" d="M852.79 645.032C843.959 649.716 834.779 653.708 825.33 656.972L623.2 425.232L852.79 645.032Z" fill="black"/>
<path d="M482 104.962C483.657 104.962 485 103.619 485 101.962C485 100.305 483.657 98.9622 482 98.9622C480.343 98.9622 479 100.305 479 101.962C479 103.619 480.343 104.962 482 104.962Z" fill="#F2F2F2"/>
<path d="M399 207.962C400.657 207.962 402 206.619 402 204.962C402 203.305 400.657 201.962 399 201.962C397.343 201.962 396 203.305 396 204.962C396 206.619 397.343 207.962 399 207.962Z" fill="#F2F2F2"/>
<path d="M602 224.962C603.105 224.962 604 224.067 604 222.962C604 221.858 603.105 220.962 602 220.962C600.895 220.962 600 221.858 600 222.962C600 224.067 600.895 224.962 602 224.962Z" fill="#F2F2F2"/>
<path d="M182 269.962C183.105 269.962 184 269.067 184 267.962C184 266.858 183.105 265.962 182 265.962C180.895 265.962 180 266.858 180 267.962C180 269.067 180.895 269.962 182 269.962Z" fill="#F2F2F2"/>
<path d="M614 100.962C615.105 100.962 616 100.067 616 98.9622C616 97.8576 615.105 96.9622 614 96.9622C612.895 96.9622 612 97.8576 612 98.9622C612 100.067 612.895 100.962 614 100.962Z" fill="#F2F2F2"/>
<path d="M738 196.962C739.105 196.962 740 196.067 740 194.962C740 193.858 739.105 192.962 738 192.962C736.895 192.962 736 193.858 736 194.962C736 196.067 736.895 196.962 738 196.962Z" fill="#F2F2F2"/>
<path d="M860 348.962C861.105 348.962 862 348.067 862 346.962C862 345.858 861.105 344.962 860 344.962C858.895 344.962 858 345.858 858 346.962C858 348.067 858.895 348.962 860 348.962Z" fill="#F2F2F2"/>
<path d="M306 121.222H303.24V118.462H301.76V121.222H299V122.7H301.76V125.459H303.24V122.7H306V121.222Z" fill="#F2F2F2"/>
<path d="M848 424.222H845.24V421.462H843.76V424.222H841V425.7H843.76V428.459H845.24V425.7H848V424.222Z" fill="#F2F2F2"/>
<path d="M1088 613.962C1088 630.531 844.443 687.962 544 687.962C243.557 687.962 0 630.531 0 613.962C0 597.393 243.557 627.962 544 627.962C844.443 627.962 1088 597.394 1088 613.962Z" fill="#3F3D56"/>
<path opacity="0.1" d="M1088 613.962C1088 630.531 844.443 687.962 544 687.962C243.557 687.962 0 630.531 0 613.962C0 597.393 243.557 627.962 544 627.962C844.443 627.962 1088 597.394 1088 613.962Z" fill="black"/>
<path d="M544 643.962C844.443 643.962 1088 630.531 1088 613.962C1088 597.394 844.443 583.962 544 583.962C243.557 583.962 0 597.394 0 613.962C0 630.531 243.557 643.962 544 643.962Z" fill="#3F3D56"/>
<path d="M572 604.962H498C493.029 604.962 489 608.992 489 613.962C489 618.933 493.029 622.962 498 622.962H572C576.971 622.962 581 618.933 581 613.962C581 608.992 576.971 604.962 572 604.962Z" fill="#2F2E41"/>
<path d="M572 586.962H498C493.029 586.962 489 590.992 489 595.962C489 600.933 493.029 604.962 498 604.962H572C576.971 604.962 581 600.933 581 595.962C581 590.992 576.971 586.962 572 586.962Z" fill="#2F2E41"/>
<path d="M137 490.528C137 545.871 171.719 590.654 214.626 590.654Z" fill="#3F3D56"/>
<path d="M214.626 590.654C214.626 534.689 253.371 489.403 301.252 489.403Z" fill="#6C63FF"/>
<path d="M165.125 495.545C165.125 548.115 187.265 590.654 214.625 590.654Z" fill="#6C63FF"/>
<path d="M214.626 590.654C214.626 519.143 259.409 461.277 314.752 461.277Z" fill="#3F3D56"/>
<path d="M198.3 591.36C198.3 591.36 209.309 591.021 212.626 588.66C215.943 586.299 229.56 583.477 230.383 587.265C231.206 591.053 246.927 606.109 234.498 606.21C222.069 606.311 205.619 604.274 202.308 602.257C198.997 600.24 198.3 591.36 198.3 591.36Z" fill="#A8A8A8"/>
<path opacity="0.2" d="M234.716 604.89C222.287 604.99 205.837 602.954 202.526 600.937C200.004 599.401 198.999 593.889 198.663 591.346L198.295 591.36C198.295 591.36 198.995 600.239 202.304 602.26C205.613 604.281 222.065 606.313 234.494 606.213C238.082 606.184 239.321 604.908 239.253 603.013C238.755 604.155 237.386 604.868 234.716 604.89Z" fill="black"/>
<path d="M721.429 527.062C721.429 565.091 745.286 595.862 774.77 595.862Z" fill="#3F3D56"/>
<path d="M774.769 595.863C774.769 557.407 801.392 526.288 834.294 526.288Z" fill="#6C63FF"/>
<path d="M740.755 530.509C740.755 566.633 755.968 595.863 774.769 595.863Z" fill="#6C63FF"/>
<path d="M774.769 595.863C774.769 546.724 805.542 506.963 843.569 506.963Z" fill="#3F3D56"/>
<path d="M763.548 596.348C763.548 596.348 771.113 596.115 773.392 594.492C775.671 592.869 785.028 590.93 785.592 593.534C786.156 596.138 796.96 606.483 788.42 606.552C779.88 606.621 768.576 605.222 766.301 603.836C764.026 602.45 763.548 596.348 763.548 596.348Z" fill="#A8A8A8"/>
<path opacity="0.2" d="M788.574 605.645C780.034 605.714 768.73 604.315 766.455 602.929C764.722 601.873 764.032 598.086 763.801 596.339L763.548 596.349C763.548 596.349 764.027 602.449 766.303 603.836C768.579 605.223 779.882 606.621 788.422 606.552C790.887 606.532 791.739 605.652 791.692 604.352C791.349 605.14 790.409 605.63 788.574 605.645Z" fill="black"/>
<path d="M893.813 618.699C893.813 618.699 905.173 616.97 908.313 614.108C911.453 611.246 925.203 606.62 926.53 610.441C927.857 614.262 946.024 627.888 933.163 629.548C920.302 631.208 903.01 631.157 899.328 629.483C895.646 627.809 893.813 618.699 893.813 618.699Z" fill="#A8A8A8"/>
<path opacity="0.2" d="M933.228 628.154C920.368 629.813 903.075 629.763 899.393 628.089C896.593 626.814 894.858 621.231 894.193 618.639L893.814 618.7C893.814 618.7 895.647 627.809 899.33 629.483C903.013 631.157 920.305 631.208 933.165 629.548C936.877 629.069 938.001 627.592 937.694 625.642C937.319 626.888 935.991 627.798 933.228 628.154Z" fill="black"/>
<path d="M614.26 617.881C614.26 617.881 623.847 616.422 626.497 614.006C629.147 611.59 640.752 607.686 641.871 610.911C642.99 614.136 658.323 625.636 647.471 627.036C636.619 628.436 622.023 628.394 618.916 626.981C615.809 625.568 614.26 617.881 614.26 617.881Z" fill="#A8A8A8"/>
<path opacity="0.2" d="M647.524 625.856C636.671 627.256 622.076 627.214 618.969 625.801C616.602 624.725 615.142 620.013 614.579 617.825L614.259 617.876C614.259 617.876 615.806 625.563 618.914 626.976C622.022 628.389 636.614 628.432 647.469 627.031C650.602 626.631 651.55 625.38 651.291 623.731C650.977 624.788 649.856 625.556 647.524 625.856Z" fill="black"/>
<path d="M122.389 613.09C122.389 613.09 129.852 611.954 131.916 610.074C133.98 608.194 143.016 605.154 143.885 607.665C144.754 610.176 156.693 619.128 148.243 620.218C139.793 621.308 128.432 621.275 126.013 620.175C123.594 619.075 122.389 613.09 122.389 613.09Z" fill="#A8A8A8"/>
<path opacity="0.2" d="M148.285 619.302C139.836 620.392 128.474 620.359 126.055 619.259C124.213 618.421 123.076 614.753 122.638 613.05L122.389 613.09C122.389 613.09 123.589 619.074 126.013 620.175C128.437 621.276 139.794 621.308 148.243 620.218C150.682 619.903 151.42 618.933 151.219 617.652C150.973 618.47 150.1 619.068 148.285 619.302Z" fill="black"/>
<path opacity="0.1" d="M383.7 601.318C383.7 631.538 341.576 622.191 290 622.191C238.424 622.191 196.926 631.538 196.926 601.318C196.926 571.098 239.044 564.525 290.62 564.525C342.196 564.525 383.7 571.098 383.7 601.318Z" fill="black"/>
<path d="M383.7 593.881C383.7 624.101 341.576 614.754 290 614.754C238.424 614.754 196.926 624.101 196.926 593.881C196.926 563.661 239.04 557.081 290.616 557.081C342.192 557.081 383.7 563.657 383.7 593.881Z" fill="#3F3D56"/>
<path d="M589.862 553.11L595.287 553.172C595.122 560.707 595.648 568.42 595.018 575.92C593.276 575.704 591.523 575.663 589.771 575.591C589.955 568.114 590.117 560.586 589.862 553.11Z" fill="#225030"/>
<path d="M546.804 553.166L551.927 553.081C551.786 558.944 551.882 564.829 551.901 570.694L562.756 570.766L562.706 575.542C557.466 575.226 552.142 575.481 546.887 575.414C546.934 568 546.845 560.581 546.804 553.166Z" fill="#225030"/>
<path d="M564.532 553.13C571.058 553.28 577.583 553.16 584.109 553.073C584.083 554.732 583.951 556.397 583.858 558.054C581.568 557.843 579.265 557.856 576.967 557.831C576.724 561.364 576.952 565 577.023 568.542L577.078 575.71L571.706 575.463L571.701 557.745L564.594 557.779L564.532 553.13Z" fill="#225030"/>
<path d="M426.758 552.654C429.201 552.783 431.565 553.677 433.667 554.911C434.455 555.374 434.93 555.767 435.167 556.656L434.908 556.848C434.792 556.935 434.68 557.027 434.562 557.111C433.516 557.854 432.996 559.138 432.386 560.247C431.143 559.209 429.961 558.195 428.358 557.78C426.654 557.339 424.902 557.528 423.388 558.443C421.842 559.377 420.796 560.882 420.38 562.63C419.938 564.494 420.363 566.518 421.448 568.089C422.318 569.347 423.627 570.312 425.15 570.571C427.051 570.896 429.145 570.206 430.679 569.098L432.264 567.953L432.848 568.328L435.482 571.402C432.976 573.538 430.607 575.297 427.203 575.7C424.431 576.029 421.61 575.214 419.429 573.474C416.951 571.498 415.351 568.527 415.053 565.371C414.766 562.336 415.653 559.158 417.633 556.818C420.025 553.992 423.214 553.015 426.758 552.654Z" fill="#225030"/>
<path d="M504.144 552.625C507.444 552.59 510.071 553.788 512.974 555.18C512.723 555.442 512.48 555.715 512.227 555.975C511.456 556.772 511.305 557.256 511.058 558.345C510.95 558.819 510.855 558.832 510.526 559.169C509.303 559.167 508.264 558.555 507.152 558.107C505.742 557.541 504.039 556.833 502.563 557.582C501.902 557.918 501.475 558.49 501.244 559.176C502.245 562.19 508.845 562.044 511.429 563.902C512.564 564.718 513.269 565.877 513.483 567.26C513.786 569.208 513.376 571.044 512.164 572.608C510.286 575.033 507.166 575.556 504.31 575.907C500.959 575.565 498.661 574.411 495.947 572.549C496.964 571.097 497.624 569.636 498.206 567.977C499.082 568.542 499.963 569.11 500.9 569.57C502.824 570.517 504.501 571.157 506.61 570.367C507.499 570.035 508.299 569.661 508.726 568.773C508.04 567.495 500.452 565.802 498.424 564.357C497.304 563.558 496.454 562.491 496.268 561.097C496.02 559.228 496.928 556.878 498.048 555.409C499.578 553.403 501.789 552.952 504.144 552.625Z" fill="#225030"/>
<path d="M519.645 553.069C521.309 553.127 522.989 553.088 524.655 553.09C524.819 557.135 523.74 566.97 526.49 569.8C527.398 570.735 528.629 571.097 529.911 571.048C531.129 571.001 532.229 570.602 533.062 569.691C535.63 566.882 534.662 557.089 534.615 553.111C536.352 553.193 538.105 553.119 539.843 553.097L539.886 557.735C539.94 562.457 540.816 569.1 537.257 572.783C535.294 574.815 532.364 575.819 529.577 575.837C526.728 575.855 523.913 574.831 521.959 572.716C517.99 568.418 519.524 558.625 519.645 553.069Z" fill="#225030"/>
<path d="M456.187 454.826L474.549 454.75C474.54 457.24 475.156 467.487 474.118 468.887L473.284 468.862C467.28 468.695 461.273 469.071 455.266 469.044C455.077 466.353 454.144 457.043 455.264 455.004L456.187 454.826Z" fill="#225030"/>
<path d="M454.954 434.193C461.493 434.102 468.034 434.159 474.574 434.187C474.586 436.569 475.24 446.988 474.243 448.356C467.844 448.151 461.437 448.648 455.036 448.405L454.954 434.193Z" fill="#225030"/>
<path d="M640.801 552.637C643.337 552.653 645.924 553.452 648.111 554.737C649.028 555.275 649.582 555.726 649.856 556.788C648.405 557.656 647.751 558.637 646.793 559.987C644.966 558.725 643.133 557.566 640.833 557.475C639.207 557.411 637.784 557.981 636.618 559.114C635.328 560.368 634.656 561.982 634.651 563.777C634.647 565.766 635.413 567.785 636.858 569.17C638.133 570.391 639.963 571.14 641.739 570.998C642.938 570.902 644.573 570.196 645.24 569.14C645.66 568.474 645.636 567.935 645.546 567.185L645.024 566.853C643.853 566.933 642.331 567.223 641.354 566.391C640.336 565.525 640.586 563.746 640.593 562.533L643.91 562.532C646.356 562.485 648.803 562.489 651.249 562.471C651.301 565.406 651.745 569.039 650.066 571.603C648.528 573.952 645.305 575.111 642.639 575.562C639.6 576.077 636.578 575.425 634.102 573.56C631.621 571.692 629.957 568.897 629.573 565.808C629.19 562.729 629.96 559.478 631.899 557.029C634.165 554.167 637.304 553.042 640.801 552.637Z" fill="#225030"/>
<path d="M496.665 475.331C498.483 475.28 500.31 475.317 502.129 475.322L502.051 489.483C497.129 489.201 492.11 489.432 487.178 489.471C485.135 489.49 483.09 489.418 481.049 489.368C480.906 484.714 480.977 480.042 480.973 475.385C486.206 475.436 491.431 475.427 496.665 475.331Z" fill="#225030"/>
<path d="M481.031 454.716C488.038 454.861 495.053 454.765 502.062 454.723C502.092 459.429 502.165 464.139 502.012 468.842C495.094 468.758 488.177 469.117 481.255 468.968C480.99 464.218 481.005 459.47 481.031 454.716Z" fill="#225030"/>
<path d="M484.972 553.024L489.85 553.117C489.553 560.702 490.295 568.402 489.542 575.96C488.802 575.893 488.026 575.848 487.333 575.563C484.59 574.439 477.657 565.806 475.162 563.21C475.006 567.378 475.103 571.552 475.15 575.722L470.103 575.566C469.95 568.07 469.976 560.601 470.124 553.104L473.676 553.198C475.578 555.292 482.401 564.155 484.23 565.005C485.143 563.874 484.92 555.016 484.972 553.024Z" fill="#225030"/>
<path d="M480.998 434.19C488.03 434.069 495.066 434.119 502.099 434.174L502.134 448.455C495.103 448.203 488.056 448.592 481.018 448.306C480.936 443.604 480.992 438.894 480.998 434.19Z" fill="#225030"/>
<path d="M602.937 553.003L606.519 553.077C610.451 557.329 614.197 561.748 618.242 565.896C618.376 561.629 618.244 557.36 618.402 553.087C619.998 553.134 621.602 553.113 623.199 553.12C623.442 560.642 622.852 568.205 623.225 575.697L619.741 575.812C616.086 571.346 612.12 567.057 608.078 562.939C608.064 567.18 608.141 571.423 608.188 575.663L603.047 575.655C603.256 568.247 603.322 560.404 602.937 553.003Z" fill="#225030"/>
<path d="M445.999 478.05C446.015 477.343 445.751 476.952 445.429 476.335L445.242 475.984L445.546 475.887L445.508 475.556L445.659 475.437C446.222 475.373 446.76 475.306 447.31 475.166L447.12 474.685L447.882 474.609C447.958 474.705 448.016 474.818 448.109 474.897C448.241 475.009 448.401 475.082 448.547 475.174C451.457 475.852 454.931 475.493 457.921 475.461C463.472 475.4 469.041 475.228 474.589 475.433L474.52 489.56C467.821 489.258 461.1 489.338 454.395 489.324C451.598 485.611 448.503 481.959 445.999 478.05Z" fill="#225030"/>
<path d="M449.528 552.9C452.093 552.659 454.335 552.709 456.74 553.816C459.757 555.205 462.039 557.904 463.077 561.043C463.996 563.822 463.844 566.767 462.511 569.387C460.787 572.78 457.992 574.386 454.53 575.561C451.822 575.929 449.006 575.743 446.495 574.596C443.882 573.401 441.865 571.143 440.873 568.458C439.73 565.365 440.103 561.849 441.6 558.937C443.334 555.561 446.042 553.97 449.528 552.9Z" fill="#225030"/>
<path d="M450.165 557.588C451.35 557.567 452.523 557.557 453.658 557.942C455.516 558.573 457.111 560.082 457.865 561.89C458.547 563.523 458.601 565.473 457.87 567.102C457.053 568.924 455.462 570.167 453.626 570.834C452.448 570.904 451.088 571.068 449.947 570.71C448.278 570.188 446.792 568.822 446.033 567.261C445.172 565.491 445.052 563.376 445.816 561.549C446.648 559.559 448.195 558.329 450.165 557.588Z" fill="#F8F9F8"/>
<path d="M590.585 309.106C591.162 309.068 591.774 309.057 592.349 309.129C594.041 309.342 595.983 310.845 596.919 312.226C597.591 313.218 598.097 314.722 597.803 315.925C597.516 317.101 576.213 350.778 574.479 352.968C573.34 354.407 572.157 355.271 570.551 356.137C569.058 356.278 567.862 356.27 566.524 355.517C564.575 354.419 563.839 352.473 563.208 350.462C563.229 350.389 563.248 350.316 563.269 350.243L563.377 349.879C563.553 349.265 563.726 348.655 563.975 348.065C566.043 343.155 570.433 337.5 573.328 332.935L581.776 319.634C583.557 316.843 585.267 313.826 587.441 311.324C588.409 310.21 589.223 309.666 590.585 309.106Z" fill="#EBBB23"/>
<path d="M476.965 309.123C478.012 309.028 479.12 308.967 480.116 309.37C481.292 309.847 482.111 310.796 482.878 311.767C488.514 318.904 494.238 328.788 499.261 336.66C501.762 340.579 505.031 344.666 506.887 348.919C507.393 350.079 507.402 351.295 506.904 352.471C506.065 354.45 504.268 355.568 502.374 356.366C500.98 356.452 499.798 356.435 498.506 355.823C497.289 355.246 496.388 354.232 495.599 353.169C492.273 348.691 489.501 343.515 486.499 338.784L477.75 325.028C475.672 321.769 473.143 318.382 471.762 314.764C471.972 314.112 472.197 313.478 472.492 312.858C473.483 310.777 474.857 309.903 476.965 309.123Z" fill="#EBBB23"/>
<path d="M534.196 293.003C535.288 292.983 536.214 293.044 537.222 293.503C538.844 294.242 540.063 295.619 540.641 297.304C541.259 299.106 541.333 336.439 541.002 341.122C540.928 342.168 540.8 343.19 540.276 344.117C539.268 345.899 537.667 346.637 535.788 347.227C534.857 347.219 533.951 347.203 533.061 346.896C531.395 346.322 530.217 345.07 529.54 343.466C528.851 341.833 528.899 297.627 529.578 296.137C530.401 294.332 532.433 293.524 534.196 293.003Z" fill="#EBBB23"/>
<path d="M438.051 347.752C438.519 347.762 438.958 347.834 439.404 347.973C442.968 349.089 451.634 355.179 455.403 357.37C459.526 359.766 463.653 362.237 467.827 364.535C471.35 366.475 475.102 368.257 478.426 370.523C479.942 371.556 481.381 372.794 482.219 374.457C482.868 375.746 483.098 377.222 482.56 378.592C481.757 380.64 479.7 381.939 477.812 382.841C477.24 382.794 476.657 382.699 476.105 382.539C472.475 381.483 463.807 375.669 460.143 373.499C452.296 368.852 444.041 364.468 436.539 359.306C435.475 358.574 434.213 357.752 433.614 356.579C432.885 355.152 432.673 353.553 433.244 352.031C434.091 349.773 435.941 348.648 438.051 347.752Z" fill="#EBBB23"/>
<path d="M629.653 347.781C630.821 347.722 631.832 347.714 632.929 348.17C634.575 348.853 636.062 350.411 636.697 352.076C637.191 353.37 637.144 354.835 636.578 356.099C635.951 357.498 634.869 358.579 633.647 359.474C628.717 363.087 622.811 365.831 617.529 368.94L604.008 377.005C600.908 378.856 597.713 381.015 594.331 382.296C593.237 382.552 592.216 382.735 591.13 382.338C589.622 381.788 588.406 380.609 587.73 379.162C587.027 377.66 586.96 375.921 587.635 374.397C588.264 372.977 589.627 371.795 590.854 370.896C595.528 367.467 600.996 364.925 605.942 361.886L621.146 352.529C623.915 350.862 626.659 349.018 629.653 347.781Z" fill="#EBBB23"/>
<path d="M510.014 462.164C513.768 460.617 517.63 458.685 520.609 455.882C522.61 454 524.547 451.617 525.779 449.153C526.321 448.07 526.778 446.767 527.435 445.763C527.746 445.287 528.131 445.105 528.638 444.904C528.806 444.837 528.977 444.775 529.146 444.712L529.521 443.71L529.416 443.356C531.139 446.434 532.168 451.879 533.99 454.329C534.108 454.487 534.233 454.639 534.353 454.795C535.537 457.418 535.956 460.55 536.362 463.379C538.216 476.291 536.754 488.841 532.142 501.049C528.938 509.532 524.411 517.279 519.263 524.707C495.084 518.96 480.152 512.583 460.915 496.432C474.686 496.027 488.499 496.307 502.279 496.188L502.176 508.006L509.438 508.005C509.405 498.373 509.035 488.587 509.45 478.973L509.791 479.076L509.931 478.35L510.328 478.535L509.969 477.79C510.321 472.648 510.029 467.326 510.014 462.164Z" fill="#225030"/>
<path d="M426.455 385.795C449.352 389.351 475.085 396.543 495.282 408.023C513.374 418.306 528.722 434.379 534.353 454.795C534.233 454.64 534.108 454.487 533.991 454.33C532.168 451.879 531.139 446.434 529.416 443.356L529.521 443.71L529.146 444.712C528.977 444.776 528.807 444.837 528.638 444.904C528.131 445.105 527.746 445.288 527.435 445.763C526.778 446.767 526.321 448.07 525.779 449.154C524.547 451.617 522.61 454 520.609 455.882C517.63 458.685 513.768 460.617 510.014 462.165C510.029 467.326 510.321 472.648 509.969 477.79L510.328 478.535L509.931 478.35L509.791 479.076L509.45 478.974C508.789 461.936 509.811 444.799 509.225 427.741C488.839 427.302 468.429 427.834 448.04 427.567C448.356 437.943 448.131 448.374 448.125 458.756C448.121 464.191 447.855 469.78 448.547 475.174C448.401 475.082 448.241 475.009 448.109 474.897C448.016 474.818 447.958 474.706 447.882 474.61L447.12 474.685L447.31 475.166C446.76 475.306 446.222 475.373 445.659 475.437L445.508 475.556L445.546 475.887L445.242 475.984L445.429 476.336C445.752 476.952 446.015 477.343 445.999 478.05C442.894 474.445 440.408 469.694 438.35 465.448C426.183 440.355 427.802 412.853 426.455 385.795Z" fill="url(#paint0_linear_163_29)"/>
<path d="M531.576 361.358C543.222 360.615 554.491 363.989 563.879 370.905C575.239 379.273 580.849 391.627 582.936 405.23C579.946 405.844 576.974 406.985 574.103 408.016C562.066 412.337 550.333 418.251 540.546 426.573L538.28 428.787C524.052 409.045 511.206 401.572 490.31 390.071C492.91 385.723 494.962 381.352 498.31 377.452C506.845 367.512 518.654 362.281 531.576 361.358Z" fill="url(#paint1_linear_163_29)"/>
<path d="M639.374 392.506C641.413 394.694 642.304 406.552 642.499 410.259C643.965 438.132 633.494 468.545 614.716 489.218C594.929 511.003 566.76 524.087 537.4 525.445C542.539 506.908 554.1 489.741 569.007 477.616C579.08 469.368 596.131 459.954 609.402 459.282L608.958 454.81C591.209 454.671 577.128 456.292 561.587 465.647C558.286 467.635 554.965 469.73 551.985 472.179C552.25 462.152 548.675 450.628 544.23 441.668C554.686 432.016 566.733 425.05 580.141 420.313C601.987 412.595 623.848 412.491 639.374 392.506Z" fill="url(#paint2_linear_163_29)"/>
</g>
<defs>
<linearGradient id="paint0_linear_163_29" x1="497.06" y1="472.741" x2="432.839" y2="382.324" gradientUnits="userSpaceOnUse">
<stop stop-color="#34711B"/>
<stop offset="1" stop-color="#A0E32E"/>
</linearGradient>
<linearGradient id="paint1_linear_163_29" x1="573.466" y1="415.989" x2="506.422" y2="366.762" gradientUnits="userSpaceOnUse">
<stop stop-color="#CD9C0A"/>
<stop offset="1" stop-color="#FDCF35"/>
</linearGradient>
<linearGradient id="paint2_linear_163_29" x1="563.061" y1="426.577" x2="613.978" y2="490.618" gradientUnits="userSpaceOnUse">
<stop stop-color="#6CB31E"/>
<stop offset="1" stop-color="#1A4623"/>
</linearGradient>
<clipPath id="clip0_163_29">
<rect width="1088" height="687.962" fill="white"/>
</clipPath>
</defs>
</svg>
